<?xml version="1.0" standalone="no"?>
<!DOCTYPE svg PUBLIC "-//W3C//DTD SVG 1.1//EN" "http://www.w3.org/Graphics/SVG/1.1/DTD/svg11.dtd" >
<svg>
<metadata>
Created by FontForge 20090622 at Mon Apr 27 18:15:56 2015
 By deploy user
&#194;&#169; 1990, 2002 Adobe Systems Incorporated. All rights reserved.
</metadata>
<defs>
<font id="HelveticaNeueLTStd-LtCn" horiz-adv-x="426" >
  <font-face 
    font-family="HelveticaNeueLT Std Lt Cn"
    font-weight="300"
    font-stretch="condensed"
    units-per-em="1000"
    panose-1="2 11 4 6 2 2 2 3 2 4"
    ascent="714"
    descent="-286"
    x-height="531"
    cap-height="714"
    bbox="-167 -204 1000 927"
    underline-thickness="50"
    underline-position="-50"
    unicode-range="U+000D-U+FB02"
  />
<missing-glyph horiz-adv-x="500" 
d="M0 700h500v-700h-500v700zM420 650h-340l170 -255zM450 95v510l-170 -255zM420 50l-170 255l-170 -255h340zM50 95l170 255l-170 255v-510z" />
    <glyph glyph-name="f_i" unicode="fi" 
d="M304 531h60v-531h-60v531zM304 714h60v-102h-60v102zM80 481h-73v50h73v63q0 27 4 50.5t16 41t35 27t61 9.5q14 0 22 -0.5t16 -2.5v-50q-13 3 -29 3q-33 0 -49 -16t-16 -62v-63h94v-50h-94v-481h-60v481z" />
    <glyph glyph-name="f_l" unicode="fl" 
d="M304 714h60v-714h-60v714zM80 481h-73v50h73v63q0 27 4 50.5t16 41t35 27t61 9.5q14 0 22 -0.5t16 -2.5v-50q-13 3 -29 3q-33 0 -49 -16t-16 -62v-63h94v-50h-94v-481h-60v481z" />
    <glyph glyph-name=".notdef" horiz-adv-x="500" 
d="M0 700h500v-700h-500v700zM420 650h-340l170 -255zM450 95v510l-170 -255zM420 50l-170 255l-170 -255h340zM50 95l170 255l-170 255v-510z" />
    <glyph glyph-name=".null" horiz-adv-x="0" 
 />
    <glyph glyph-name=".null" horiz-adv-x="0" 
 />
    <glyph glyph-name="nonmarkingreturn" unicode="&#xd;" horiz-adv-x="250" 
 />
    <glyph glyph-name="space" unicode=" " horiz-adv-x="240" 
 />
    <glyph glyph-name="exclam" unicode="!" horiz-adv-x="240" 
d="M86 714h68v-226l-12 -302h-44l-12 302v226zM86 102h68v-102h-68v102z" />
    <glyph glyph-name="quotedbl" unicode="&#x22;" horiz-adv-x="352" 
d="M71 714h60v-240h-60v240zM221 714h60v-240h-60v240z" />
    <glyph glyph-name="numbersign" unicode="#" horiz-adv-x="480" 
d="M169 270h122l20 156h-122zM3 270h116l20 156h-110v44h116l30 226h50l-30 -226h122l30 226h50l-30 -226h110v-44h-116l-20 -156h110v-44h-116l-30 -226h-50l30 226h-122l-30 -226h-50l30 226h-110v44z" />
    <glyph glyph-name="dollar" unicode="$" horiz-adv-x="480" 
d="M219 654q-56 -6 -85 -41t-29 -83q0 -30 9 -51.5t24.5 -37t36 -26.5t44.5 -19v258zM263 42q55 6 89.5 40t34.5 100q0 32 -10 54t-27 37.5t-39.5 27t-47.5 20.5v-279zM29 215h64v-26q0 -63 31.5 -102.5t94.5 -44.5v294q-33 10 -65 22.5t-57 33t-40.5 52.5t-15.5 80
q0 78 46.5 127.5t131.5 56.5v71h44v-71q88 -7 128.5 -54.5t40.5 -135.5h-64q0 59 -25.5 94.5t-79.5 41.5v-273q34 -11 67.5 -24t60.5 -33t43.5 -51.5t16.5 -80.5q0 -94 -51 -145t-137 -59v-83h-44v83q-93 5 -141.5 56.5t-48.5 150.5v20z" />
    <glyph glyph-name="percent" unicode="%" horiz-adv-x="722" 
d="M107 524q0 -80 20.5 -110t51.5 -30q32 0 52 30t20 110t-20 110t-52 30q-31 0 -51.5 -30t-20.5 -110zM489 708h50l-307 -720h-50zM471 172q0 -80 20.5 -110t51.5 -30q32 0 52 30t20 110t-20 110t-52 30q-31 0 -51.5 -30t-20.5 -110zM53 524q0 54 8.5 89.5t24.5 56.5
t39.5 29.5t53.5 8.5t53.5 -8.5t39.5 -29.5t24.5 -56.5t8.5 -89.5t-8.5 -89.5t-24.5 -56.5t-39.5 -29.5t-53.5 -8.5t-53.5 8.5t-39.5 29.5t-24.5 56.5t-8.5 89.5zM417 172q0 54 8.5 89.5t24.5 56.5t39.5 29.5t53.5 8.5t53.5 -8.5t39.5 -29.5t24.5 -56.5t8.5 -89.5t-8.5 -89.5
t-24.5 -56.5t-39.5 -29.5t-53.5 -8.5t-53.5 8.5t-39.5 29.5t-24.5 56.5t-8.5 89.5z" />
    <glyph glyph-name="ampersand" unicode="&#x26;" horiz-adv-x="537" 
d="M412 87q-30 -45 -77 -72t-113 -27q-46 0 -83 15t-63 40.5t-40 60t-14 73.5q0 57 27 101.5t76 82.5l59 45q-38 51 -60 92.5t-22 83.5q0 32 11.5 57t31.5 41.5t46.5 25t56.5 8.5q63 0 100 -36t37 -96q0 -22 -5.5 -43t-19.5 -43.5t-38.5 -46.5t-62.5 -51l154 -216
q14 33 19.5 67.5t6.5 67.5h60q0 -47 -13 -94.5t-37 -90.5l94 -132h-68zM162 584q0 -29 18.5 -66.5t48.5 -78.5q30 23 48.5 42.5t29 37.5t14.5 34t4 31q0 35 -23 57.5t-58 22.5t-58.5 -22.5t-23.5 -57.5zM214 366q-38 -26 -62.5 -50t-39 -46.5t-20.5 -43.5t-6 -42
q0 -32 11.5 -58t31.5 -45t46 -29t56 -10q44 0 86.5 24t63.5 66z" />
    <glyph glyph-name="quotesingle" unicode="'" horiz-adv-x="240" 
d="M90 714h60v-240h-60v240z" />
    <glyph glyph-name="parenleft" unicode="(" horiz-adv-x="222" 
d="M230 714q-59 -103 -87.5 -217t-28.5 -232t28.5 -232t87.5 -217h-43q-74 121 -103.5 232.5t-29.5 216.5t29.5 216.5t103.5 232.5h43z" />
    <glyph glyph-name="parenright" unicode=")" horiz-adv-x="222" 
d="M-8 -184q59 103 87.5 217t28.5 232t-28.5 232t-87.5 217h43q74 -121 103.5 -232.5t29.5 -216.5t-29.5 -216.5t-103.5 -232.5h-43z" />
    <glyph glyph-name="asterisk" unicode="*" horiz-adv-x="334" 
d="M189 714v-111l106 34l13 -42l-105 -34l65 -90l-36 -26l-65 90l-65 -90l-36 26l65 90l-105 34l13 42l106 -34v111h44z" />
    <glyph glyph-name="plus" unicode="+" horiz-adv-x="600" 
d="M275 228h-228v50h228v228h50v-228h228v-50h-228v-228h-50v228z" />
    <glyph glyph-name="comma" unicode="," horiz-adv-x="240" 
d="M86 102h68v-102q0 -22 -3 -43t-11 -39.5t-22.5 -32.5t-37.5 -23v40q20 12 27 34.5t8 63.5h-29v102z" />
    <glyph glyph-name="hyphen" unicode="-" horiz-adv-x="333" 
d="M275 311v-54h-217v54h217z" />
    <glyph glyph-name="period" unicode="." horiz-adv-x="240" 
d="M86 102h68v-102h-68v102z" />
    <glyph glyph-name="slash" unicode="/" horiz-adv-x="278" 
d="M288 726l-244 -738h-54l244 738h54z" />
    <glyph glyph-name="zero" unicode="0" horiz-adv-x="480" 
d="M105 348q0 -85 7.5 -144t23.5 -96t42 -53.5t62 -16.5t62 16.5t42 53.5t23.5 96t7.5 144t-7.5 144t-23.5 96t-42 53.5t-62 16.5t-62 -16.5t-42 -53.5t-23.5 -96t-7.5 -144zM41 348q0 78 8.5 144t30.5 114t61 75t99 27t99 -27t61 -75t30.5 -114t8.5 -144t-8.5 -144
t-30.5 -114t-61 -75t-99 -27t-99 27t-61 75t-30.5 114t-8.5 144z" />
    <glyph glyph-name="one" unicode="1" horiz-adv-x="480" 
d="M230 542h-162v44q90 1 131.5 33.5t44.5 88.5h46v-708h-60v542z" />
    <glyph glyph-name="two" unicode="2" horiz-adv-x="480" 
d="M47 486q2 103 51 162.5t149 59.5q36 0 69 -11t58.5 -34.5t40.5 -59.5t15 -87q0 -32 -5.5 -59.5t-19 -53.5t-36 -51.5t-56.5 -53.5l-77 -63q-55 -46 -85.5 -85.5t-38.5 -95.5h324v-54h-392q0 44 10 81t28.5 69.5t46 62.5t63.5 60l76 64q54 45 76 85t22 91q0 71 -35 108
t-90 37q-61 0 -94 -41.5t-36 -130.5h-64z" />
    <glyph glyph-name="three" unicode="3" horiz-adv-x="480" 
d="M187 393h33q64 0 99 34.5t35 97.5q0 62 -29.5 97.5t-87.5 35.5q-54 0 -89 -35.5t-36 -110.5h-64q0 89 47.5 142.5t141.5 53.5q82 0 131.5 -46.5t49.5 -128.5q0 -59 -28 -102.5t-86 -57.5v-2q63 -9 99 -55.5t36 -112.5q0 -48 -13 -87.5t-38.5 -68t-63.5 -44t-88 -15.5
q-92 0 -143 50.5t-55 150.5h64q0 -31 8 -58.5t24.5 -48t42 -32.5t59.5 -12q27 0 52 8.5t44.5 28t31 50.5t11.5 76q0 69 -38 105.5t-103 36.5h-47v50z" />
    <glyph glyph-name="four" unicode="4" horiz-adv-x="480" 
d="M305 182h-273v60l273 466h60v-472h83v-54h-83v-182h-60v182zM305 236v370h-2l-217 -370h219z" />
    <glyph glyph-name="five" unicode="5" horiz-adv-x="480" 
d="M406 696v-54h-262l-31 -247l2 -2q20 39 59 55.5t78 16.5q41 0 75.5 -14.5t59 -43.5t38.5 -73t14 -103q0 -53 -13.5 -97.5t-39.5 -77t-65.5 -50.5t-91.5 -18q-41 0 -75.5 12.5t-59.5 37.5t-39 61t-14 82h64q0 -30 8.5 -56t25 -45.5t41 -30.5t56.5 -11q64 0 101.5 51.5
t37.5 151.5q0 37 -8 68.5t-25 55t-43 37t-62 13.5q-40 0 -73.5 -19.5t-48.5 -62.5h-60l41 363h310z" />
    <glyph glyph-name="six" unicode="6" horiz-adv-x="480" 
d="M363 542q-2 52 -30.5 84t-81.5 32q-37 0 -64.5 -17.5t-46 -56t-28 -99.5t-10.5 -149l2 -2q17 55 56 85.5t96 30.5q46 0 81 -16t58 -45t35 -69.5t12 -89.5q0 -50 -11.5 -94t-36 -77t-61.5 -52t-88 -19q-60 0 -100 22t-63.5 65t-33.5 106.5t-10 147.5q0 87 10 157
t34.5 119.5t66 76t105.5 26.5q84 0 128 -46.5t45 -119.5h-64zM114 219q0 -34 7 -66.5t22.5 -58t41 -41t61.5 -15.5q37 0 62 15.5t40.5 41t22.5 58t7 66.5t-7 66.5t-22.5 58t-40.5 41t-62 15.5q-36 0 -61.5 -15.5t-41 -41t-22.5 -58t-7 -66.5z" />
    <glyph glyph-name="seven" unicode="7" horiz-adv-x="480" 
d="M41 696h398v-54q-57 -70 -101.5 -152t-76.5 -167t-51 -168t-25 -155h-68q4 73 26 159t57 172t81 167t98 144h-338v54z" />
    <glyph glyph-name="eight" unicode="8" horiz-adv-x="480" 
d="M105 195q0 -32 8.5 -60.5t25.5 -50t42 -34t59 -12.5t59 12.5t42 34t25.5 50t8.5 60.5t-8.5 61t-25.5 50.5t-42 34t-59 12.5t-59 -12.5t-42 -34t-25.5 -50.5t-8.5 -61zM41 200q0 31 8 61t23.5 54t39.5 40.5t57 19.5v2q-26 7 -46 22.5t-33.5 37t-20.5 46.5t-7 50
q0 44 13.5 76.5t37 54.5t56 33t71.5 11q78 0 128 -44t50 -131q0 -25 -6.5 -50t-20 -46.5t-33.5 -37t-47 -22.5v-2q33 -3 57 -19.5t39.5 -40.5t23.5 -54t8 -61q0 -50 -14.5 -89.5t-40.5 -66.5t-62.5 -41.5t-81.5 -14.5q-44 0 -80.5 14.5t-63 41.5t-41 66.5t-14.5 89.5z
M126 530q0 -57 28.5 -92t85.5 -35q58 0 86 35t28 92t-28 92.5t-86 35.5q-57 0 -85.5 -35.5t-28.5 -92.5z" />
    <glyph glyph-name="nine" unicode="9" horiz-adv-x="480" 
d="M117 154q2 -52 30.5 -84t81.5 -32q37 0 64.5 17.5t46 56t28 99.5t10.5 149l-2 2q-17 -55 -56 -85.5t-96 -30.5q-46 0 -81 16t-58 45t-35 69.5t-12 89.5q0 50 11.5 94t36 77t61.5 52t88 19q60 0 100 -22t63.5 -65t33.5 -106.5t10 -147.5q0 -87 -10 -157t-34.5 -119.5
t-66 -76t-105.5 -26.5q-84 0 -127.5 46.5t-45.5 119.5h64zM102 477q0 -34 7 -66.5t22.5 -58t40.5 -41t62 -15.5q36 0 61.5 15.5t41 41t22.5 58t7 66.5t-7 66.5t-22.5 58t-41 41t-61.5 15.5q-37 0 -62 -15.5t-40.5 -41t-22.5 -58t-7 -66.5z" />
    <glyph glyph-name="colon" unicode=":" horiz-adv-x="240" 
d="M86 501h68v-102h-68v102zM86 102h68v-102h-68v102z" />
    <glyph glyph-name="semicolon" unicode=";" horiz-adv-x="240" 
d="M86 102h68v-102q0 -22 -3 -43t-11 -39.5t-22.5 -32.5t-37.5 -23v40q20 12 27 34.5t8 63.5h-29v102zM86 501h68v-102h-68v102z" />
    <glyph glyph-name="less" unicode="&#x3c;" horiz-adv-x="600" 
d="M47 280l506 234v-54l-446 -207l446 -207v-54l-506 234v54z" />
    <glyph glyph-name="equal" unicode="=" horiz-adv-x="600" 
d="M47 375h506v-50h-506v50zM47 181h506v-50h-506v50z" />
    <glyph glyph-name="greater" unicode="&#x3e;" horiz-adv-x="600" 
d="M47 46l446 207l-446 207v54l506 -234v-54l-506 -234v54z" />
    <glyph glyph-name="question" unicode="?" 
d="M168 185v35q0 28 3 49t10.5 39t20.5 35t32 37l42 45q29 31 40.5 64.5t11.5 62.5q0 54 -30.5 89t-81.5 35q-65 0 -96.5 -43.5t-31.5 -124.5h-64q0 47 11.5 86.5t35 69t58.5 46t83 16.5q84 0 132 -48.5t48 -126.5q0 -39 -13 -77t-52 -80l-43 -46q-31 -32 -43.5 -61
t-12.5 -74v-28h-60zM164 102h68v-102h-68v102z" />
    <glyph glyph-name="at" unicode="@" horiz-adv-x="800" 
d="M243 288q0 -46 20.5 -74t65.5 -28q40 0 74 25t58.5 62t38.5 79.5t14 76.5q0 49 -20.5 72.5t-65.5 23.5q-40 0 -74 -23.5t-59 -59t-38.5 -77t-13.5 -77.5zM572 558h57l-102 -294q-5 -16 -9 -31.5t-4 -27.5q0 -25 27 -25q33 0 65 23t57 59t40.5 78.5t15.5 81.5
q0 59 -25 107t-66.5 82t-95.5 52.5t-112 18.5q-74 0 -136 -26.5t-107 -71t-70.5 -103.5t-25.5 -124q0 -67 26.5 -126.5t72 -103.5t107.5 -69.5t133 -25.5q41 0 81 9.5t76.5 27.5t67 43.5t50.5 57.5h60q-25 -42 -61.5 -75.5t-80.5 -57.5t-93 -36.5t-100 -12.5
q-83 0 -154 29.5t-123.5 79.5t-82 117t-29.5 143q0 77 30.5 144t83.5 117t124 79t151 29q73 0 136.5 -23t111 -64t74.5 -97t27 -123q0 -58 -22 -109.5t-56 -90t-76 -61t-83 -22.5q-29 0 -49 16.5t-19 51.5h-2q-35 -34 -67 -51t-74 -17q-59 0 -95.5 39t-36.5 108q0 52 18 104
t50.5 94t77 68t98.5 26q35 0 65 -18.5t47 -64.5h2z" />
    <glyph glyph-name="A" unicode="A" horiz-adv-x="500" 
d="M361 262l-110 402h-2l-110 -402h222zM210 714h80l211 -714h-68l-58 208h-250l-58 -208h-68z" />
    <glyph glyph-name="B" unicode="B" horiz-adv-x="500" 
d="M120 400h101q83 0 121.5 33.5t38.5 96.5q0 72 -37 101t-112 29h-112v-260zM120 54h119q165 0 165 146t-165 146h-119v-292zM56 714h197q52 0 88.5 -13t59.5 -36.5t33.5 -56.5t10.5 -73q0 -26 -7 -51t-21 -46t-34.5 -36t-47.5 -22v-2q66 -13 99.5 -60.5t33.5 -117.5
q0 -94 -57 -147t-159 -53h-196v714z" />
    <glyph glyph-name="C" unicode="C" horiz-adv-x="519" 
d="M490 242q-7 -123 -61 -188.5t-151 -65.5q-109 0 -168.5 88.5t-59.5 280.5t59.5 280.5t168.5 88.5q54 0 93 -18t64 -48t36.5 -70t11.5 -84h-64q0 73 -36 119.5t-105 46.5q-38 0 -68.5 -16.5t-51.5 -54t-32.5 -97.5t-11.5 -147t11.5 -147t32.5 -97.5t51.5 -54t68.5 -16.5
q68 0 105.5 53.5t42.5 146.5h64z" />
    <glyph glyph-name="D" unicode="D" horiz-adv-x="537" 
d="M56 714h172q78 0 128 -23t79.5 -68t40.5 -112t11 -154t-11 -154t-40.5 -112t-79.5 -68t-128 -23h-172v714zM120 54h104q53 0 90.5 14.5t61.5 49.5t35.5 93t11.5 145q0 88 -11.5 146.5t-35.5 93.5t-61.5 49.5t-90.5 14.5h-104v-606z" />
    <glyph glyph-name="E" unicode="E" horiz-adv-x="444" 
d="M56 714h354v-54h-290v-260h271v-54h-271v-292h299v-54h-363v714z" />
    <glyph glyph-name="F" unicode="F" 
d="M56 714h354v-54h-290v-260h271v-54h-271v-346h-64v714z" />
    <glyph glyph-name="G" unicode="G" horiz-adv-x="537" 
d="M258 310v54h229v-364h-50v118h-2q-17 -60 -60 -95t-97 -35q-109 0 -168.5 88.5t-59.5 280.5t59.5 280.5t168.5 88.5q51 0 88.5 -16t62 -44t38 -67t16.5 -85h-64q0 32 -9 61t-26.5 50.5t-44 34t-61.5 12.5q-38 0 -68.5 -16.5t-51.5 -54t-32.5 -97.5t-11.5 -147t11.5 -147
t32.5 -97.5t51.5 -54t68.5 -16.5q72 0 110.5 63.5t38.5 189.5v15h-169z" />
    <glyph glyph-name="H" unicode="H" horiz-adv-x="519" 
d="M399 356h-279v-356h-64v714h64v-304h279v304h64v-714h-64v356z" />
    <glyph glyph-name="I" unicode="I" horiz-adv-x="184" 
d="M60 714h64v-714h-64v714z" />
    <glyph glyph-name="J" unicode="J" horiz-adv-x="407" 
d="M19 209h64v-17q0 -73 21 -111.5t74 -38.5q26 0 46.5 6.5t34.5 23t21 44t7 70.5v528h64v-535q0 -93 -42.5 -142t-127.5 -49q-76 0 -119 44t-43 148v29z" />
    <glyph glyph-name="K" unicode="K" horiz-adv-x="480" 
d="M56 714h64v-374h2l273 374h68l-218 -298l242 -416h-68l-214 362l-85 -112v-250h-64v714z" />
    <glyph glyph-name="L" unicode="L" 
d="M56 714h64v-660h296v-54h-360v714z" />
    <glyph glyph-name="M" unicode="M" horiz-adv-x="686" 
d="M62 714h111l172 -634h2l172 634h105v-714h-64v654h-2l-185 -654h-60l-185 654h-2v-654h-64v714z" />
    <glyph glyph-name="N" unicode="N" horiz-adv-x="537" 
d="M56 714h86l273 -622h2v622h64v-714h-86l-273 622h-2v-622h-64v714z" />
    <glyph glyph-name="O" unicode="O" horiz-adv-x="556" 
d="M50 357q0 192 59.5 280.5t168.5 88.5q110 0 169 -88.5t59 -280.5t-59 -280.5t-169 -88.5q-109 0 -168.5 88.5t-59.5 280.5zM114 357q0 -87 11.5 -147t32.5 -97.5t51.5 -54t68.5 -16.5t68.5 16.5t51.5 54t32.5 97.5t11.5 147t-11.5 147t-32.5 97.5t-51.5 54t-68.5 16.5
t-68.5 -16.5t-51.5 -54t-32.5 -97.5t-11.5 -147z" />
    <glyph glyph-name="P" unicode="P" horiz-adv-x="480" 
d="M120 364h109q32 0 59.5 7.5t48 25t32.5 46t12 69.5q0 81 -39 114.5t-113 33.5h-109v-296zM56 714h193q52 0 89 -14.5t61 -41t35 -64t11 -82.5q0 -41 -11 -78t-36.5 -64.5t-67.5 -43.5t-103 -16h-107v-310h-64v714z" />
    <glyph glyph-name="Q" unicode="Q" horiz-adv-x="556" 
d="M407 32q-51 -44 -129 -44q-109 0 -168.5 88.5t-59.5 280.5t59.5 280.5t168.5 88.5q110 0 169 -88.5t59 -280.5q0 -101 -16.5 -172t-48.5 -115l73 -70l-35 -38zM287 152l35 38l77 -75q21 38 32 97.5t11 144.5q0 87 -11.5 147t-32.5 97.5t-51.5 54t-68.5 16.5t-68.5 -16.5
t-51.5 -54t-32.5 -97.5t-11.5 -147t11.5 -147t32.5 -97.5t51.5 -54t68.5 -16.5q26 0 48 7.5t42 24.5z" />
    <glyph glyph-name="R" unicode="R" horiz-adv-x="500" 
d="M56 714h213q90 0 137.5 -47.5t47.5 -131.5q0 -32 -7 -62t-22 -54t-39.5 -41t-60.5 -24v-2q67 -6 93.5 -46t28.5 -123l2 -78q1 -29 6 -56.5t24 -48.5h-75q-11 19 -14.5 45t-4.5 55l-2 60q-1 47 -7.5 79t-22 51.5t-42.5 27.5t-70 8h-121v-326h-64v714zM120 380h110
q76 0 118 34.5t42 105.5q0 33 -7.5 59t-25.5 44t-47 27.5t-73 9.5h-117v-280z" />
    <glyph glyph-name="S" unicode="S" horiz-adv-x="480" 
d="M369 531q0 66 -31 103.5t-97 37.5q-65 0 -100 -37.5t-35 -90.5t25.5 -82t64 -46.5t83.5 -30.5t83.5 -34t64 -56t25.5 -98q0 -103 -59 -156t-157 -53q-101 0 -154.5 53t-53.5 159v21h64v-27q0 -69 35.5 -110.5t106.5 -41.5q68 0 111 35t43 110q0 53 -25.5 81.5t-64 46
t-83.5 30t-83.5 33.5t-64 57.5t-25.5 101.5q0 42 13.5 77t38.5 59.5t62 38.5t83 14q100 0 147 -49.5t47 -145.5h-64z" />
    <glyph glyph-name="T" unicode="T" horiz-adv-x="444" 
d="M190 660h-184v54h432v-54h-184v-660h-64v660z" />
    <glyph glyph-name="U" unicode="U" horiz-adv-x="500" 
d="M46 714h64v-513q0 -159 140 -159t140 159v513h64v-514q0 -112 -53 -162t-151 -50t-151 50t-53 162v514z" />
    <glyph glyph-name="V" unicode="V" horiz-adv-x="462" 
d="M3 714h68l159 -646h2l159 646h68l-188 -714h-80z" />
    <glyph glyph-name="W" unicode="W" horiz-adv-x="722" 
d="M11 714h64l125 -628h2l122 628h74l122 -628h2l125 628h64l-151 -714h-80l-118 628h-2l-118 -628h-80z" />
    <glyph glyph-name="X" unicode="X" horiz-adv-x="462" 
d="M229 307l-166 -307h-64l196 364l-183 350h68l152 -290l154 290h64l-184 -350l197 -364h-68z" />
    <glyph glyph-name="Y" unicode="Y" horiz-adv-x="444" 
d="M190 286l-193 428h68l157 -356l157 356h68l-193 -428v-286h-64v286z" />
    <glyph glyph-name="Z" unicode="Z" horiz-adv-x="462" 
d="M22 60l348 600h-328v54h393v-60l-342 -600h347v-54h-418v60z" />
    <glyph glyph-name="bracketleft" unicode="[" horiz-adv-x="241" 
d="M83 714h158v-50h-98v-798h98v-50h-158v898z" />
    <glyph glyph-name="backslash" unicode="\" horiz-adv-x="278" 
d="M44 726l244 -738h-54l-244 738h54z" />
    <glyph glyph-name="bracketright" unicode="]" horiz-adv-x="241" 
d="M0 -134h98v798h-98v50h158v-898h-158v50z" />
    <glyph glyph-name="asciicircum" unicode="^" horiz-adv-x="600" 
d="M300 636l-202 -393h-54l231 453h50l231 -453h-54z" />
    <glyph glyph-name="underscore" unicode="_" horiz-adv-x="500" 
d="M0 -75h500v-50h-500v50z" />
    <glyph glyph-name="grave" unicode="`" horiz-adv-x="186" 
d="M61 738l75 -141h-48l-98 141h71z" />
    <glyph glyph-name="a" unicode="a" 
d="M47 373q0 82 39.5 126t124.5 44q83 0 116.5 -39t33.5 -102v-314q0 -44 31 -44h17v-44q-16 -6 -28 -6q-35 0 -56 12t-21 54v18h-2q-18 -53 -55 -71.5t-82 -18.5q-70 0 -102.5 40.5t-32.5 109.5q0 53 25 92t82 55l113 32q16 5 26 9.5t15.5 13.5t7.5 23.5t2 37.5
q0 51 -25.5 71.5t-66.5 20.5q-54 0 -78 -31t-24 -89h-60zM301 300h-2q-5 -14 -25.5 -22t-38.5 -13l-50 -13q-45 -12 -68 -37t-23 -73q0 -47 22.5 -75.5t61.5 -28.5q55 0 89 39t34 111v112z" />
    <glyph glyph-name="b" unicode="b" horiz-adv-x="444" 
d="M52 714h60v-263h2q10 42 42 67t82 25q88 0 129 -69.5t41 -207.5q0 -139 -41 -208.5t-129 -69.5q-48 0 -83 27t-47 73h-2v-88h-54v714zM112 266q0 -74 9.5 -119t25.5 -69t37 -32t44 -8t43.5 8t37 32t26 69t9.5 119t-9.5 118.5t-26 68.5t-37 32t-43.5 8t-44 -8t-37 -32
t-25.5 -68.5t-9.5 -118.5z" />
    <glyph glyph-name="c" unicode="c" horiz-adv-x="407" 
d="M377 176q-7 -85 -51 -136.5t-118 -51.5q-42 0 -75 15.5t-56 48.5t-35 86t-12 128q0 139 47.5 208t135.5 69q75 0 117 -44t47 -126h-60q-5 63 -30.5 91.5t-73.5 28.5q-24 0 -46 -9t-38 -34.5t-25.5 -69.5t-9.5 -115q0 -75 10 -120t25.5 -68.5t36 -31t41.5 -7.5q46 0 74 34
t36 104h60z" />
    <glyph glyph-name="d" unicode="d" horiz-adv-x="444" 
d="M338 88h-2q-12 -46 -47 -73t-83 -27q-88 0 -129 69.5t-41 208.5q0 138 41 207.5t129 69.5q50 0 82 -25t42 -67h2v263h60v-714h-54v88zM100 266q0 -74 9.5 -119t26 -69t37.5 -32t43 -8q23 0 44 8t37 32t25.5 69t9.5 119t-9.5 118.5t-25.5 68.5t-37 32t-44 8q-22 0 -43 -8
t-37.5 -32t-26 -68.5t-9.5 -118.5z" />
    <glyph glyph-name="e" unicode="e" 
d="M385 176q-7 -85 -51.5 -136.5t-119.5 -51.5q-42 0 -75 15.5t-56 48.5t-35 86t-12 128q0 139 47.5 208t135.5 69q89 0 130 -62t41 -196v-22h-290v-25q0 -57 9.5 -95.5t25 -62t36 -33t42.5 -9.5q97 0 112 138h60zM326 313q-1 99 -29 139.5t-84 40.5q-55 0 -83 -40.5
t-30 -139.5h226z" />
    <glyph glyph-name="f" unicode="f" horiz-adv-x="241" 
d="M80 481h-73v50h73v63q0 27 4 50.5t16 41t35 27t61 9.5q14 0 22 -0.5t16 -2.5v-50q-13 3 -29 3q-33 0 -49 -16t-16 -62v-63h94v-50h-94v-481h-60v481z" />
    <glyph glyph-name="g" unicode="g" horiz-adv-x="444" 
d="M332 531h54v-493q0 -111 -41.5 -166.5t-132.5 -55.5q-78 0 -117.5 36.5t-40.5 93.5h60q0 -38 30 -59t70 -21q55 0 83.5 37t28.5 108v84h-2q-14 -49 -48 -72t-76 -23q-31 0 -60.5 12t-52.5 42t-37 81.5t-14 130.5q0 138 41 207.5t129 69.5q44 0 77 -24.5t47 -69.5h2v82z
M100 272q0 -64 7.5 -106.5t22 -68t35.5 -36.5t48 -11t48 11t35.5 36.5t22 68t7.5 106.5q0 63 -7.5 105.5t-22 68t-35.5 36.5t-48 11t-48 -11t-35.5 -36.5t-22 -68t-7.5 -105.5z" />
    <glyph glyph-name="h" unicode="h" horiz-adv-x="444" 
d="M58 714h60v-257h2q11 41 46.5 63.5t83.5 22.5q61 0 98.5 -33.5t37.5 -108.5v-401h-60v384q0 109 -91 109q-53 0 -85 -37t-32 -99v-357h-60v714z" />
    <glyph glyph-name="i" unicode="i" horiz-adv-x="184" 
d="M62 531h60v-531h-60v531zM62 714h60v-102h-60v102z" />
    <glyph glyph-name="j" unicode="j" horiz-adv-x="184" 
d="M62 531h60v-593q0 -34 -9 -57.5t-24.5 -37.5t-36.5 -20.5t-45 -6.5q-18 0 -33 3v50l10 -2q6 -1 13 -1q32 0 48.5 18t16.5 74v573zM62 714h60v-102h-60v102z" />
    <glyph glyph-name="k" unicode="k" horiz-adv-x="407" 
d="M52 714h60v-447h2l206 264h74l-160 -197l189 -334h-74l-158 280l-79 -94v-186h-60v714z" />
    <glyph glyph-name="l" unicode="l" horiz-adv-x="184" 
d="M62 714h60v-714h-60v714z" />
    <glyph glyph-name="m" unicode="m" horiz-adv-x="686" 
d="M62 531h54v-74h2q21 45 55.5 65.5t79.5 20.5q48 0 76.5 -26t34.5 -67h2q18 45 51 69t84 24q56 0 89.5 -32.5t33.5 -104.5v-406h-60v397q0 96 -83 96q-45 0 -76.5 -37t-31.5 -99v-357h-60v397q0 96 -83 96q-45 0 -76.5 -37t-31.5 -99v-357h-60v531z" />
    <glyph glyph-name="n" unicode="n" horiz-adv-x="444" 
d="M58 531h54v-74h2q23 45 59 65.5t77 20.5q61 0 98.5 -33.5t37.5 -108.5v-401h-60v384q0 109 -91 109q-53 0 -85 -37t-32 -99v-357h-60v531z" />
    <glyph glyph-name="o" unicode="o" 
d="M30 266q0 139 47.5 208t135.5 69t135.5 -69t47.5 -208q0 -140 -47.5 -209t-135.5 -69t-135.5 69t-47.5 209zM94 266q0 -64 9 -107.5t25 -70.5t38 -38.5t47 -11.5t47 11.5t38 38.5t25 70.5t9 107.5q0 63 -9 106.5t-25 70.5t-38 38.5t-47 11.5t-47 -11.5t-38 -38.5
t-25 -70.5t-9 -106.5z" />
    <glyph glyph-name="p" unicode="p" horiz-adv-x="444" 
d="M52 531h54v-76h2q14 37 47 62.5t84 25.5q89 0 129 -69.5t40 -208.5q0 -138 -41 -207.5t-129 -69.5q-50 0 -82 25t-42 67h-2v-256h-60v707zM344 265q0 72 -9.5 117t-25.5 69.5t-36.5 33t-42.5 8.5q-26 0 -47.5 -12.5t-36.5 -34.5q-20 -28 -27 -70t-7 -111q0 -73 9.5 -118
t25.5 -69t37 -32t44 -8t43.5 8t37 32t26 69t9.5 118z" />
    <glyph glyph-name="q" unicode="q" horiz-adv-x="444" 
d="M332 80h-2q-10 -42 -42 -67t-82 -25q-88 0 -129 69.5t-41 207.5q0 139 40 208.5t129 69.5q51 0 84 -25.5t47 -62.5h2v76h54v-707h-60v256zM100 265q0 -73 9.5 -118t26 -69t37.5 -32t43 -8q23 0 44 8t37 32t25.5 69t9.5 118q0 69 -7 111t-27 70q-15 22 -36.5 34.5
t-47.5 12.5q-22 0 -42.5 -8.5t-36.5 -33t-25.5 -69.5t-9.5 -117z" />
    <glyph glyph-name="r" unicode="r" horiz-adv-x="278" 
d="M58 531h60v-83h2q17 45 52 70t82 25q11 0 21 -3v-60q-15 3 -29 3q-25 0 -48 -9t-41 -28t-28.5 -47t-10.5 -67v-332h-60v531z" />
    <glyph glyph-name="s" unicode="s" horiz-adv-x="389" 
d="M142 264q-57 22 -79.5 54t-22.5 72q0 41 12 70t33 47.5t50 27t63 8.5q75 0 110.5 -37.5t35.5 -110.5v-15h-60v15q0 52 -22.5 75t-64.5 23q-53 0 -75 -25t-22 -65q0 -28 13.5 -50t58.5 -39l87 -33q54 -20 76.5 -55.5t22.5 -79.5q0 -68 -40 -113t-124 -45q-82 0 -122.5 37
t-40.5 128v17h60v-14q0 -118 102 -118q48 0 76.5 25t28.5 70q0 35 -16 58.5t-56 39.5z" />
    <glyph glyph-name="t" unicode="t" horiz-adv-x="241" 
d="M80 481h-73v50h73v147h60v-147h94v-50h-94v-381q0 -32 14 -44t43 -12q18 0 37 6v-50q-10 -6 -42 -6q-61 0 -86.5 19.5t-25.5 73.5v394z" />
    <glyph glyph-name="u" unicode="u" horiz-adv-x="444" 
d="M58 531h60v-374q0 -65 22 -92t70 -27q51 0 83.5 37t32.5 99v357h60v-531h-54v74h-2q-23 -45 -59 -65.5t-77 -20.5q-61 0 -98.5 33.5t-37.5 108.5v401z" />
    <glyph glyph-name="v" unicode="v" horiz-adv-x="370" 
d="M7 531h64l118 -463h2l108 463h64l-140 -531h-68z" />
    <glyph glyph-name="w" unicode="w" horiz-adv-x="592" 
d="M10 531h64l90 -471h2l96 471h74l90 -471h2l90 471h64l-118 -531h-71l-96 471h-2l-96 -471h-71z" />
    <glyph glyph-name="x" unicode="x" horiz-adv-x="370" 
d="M185 228l-111 -228h-68l143 274l-137 257h68l105 -210l105 210h68l-137 -257l143 -274h-68z" />
    <glyph glyph-name="y" unicode="y" horiz-adv-x="370" 
d="M7 531h64l119 -460h2l107 460h64l-155 -574q-10 -39 -22 -64.5t-28.5 -41t-38.5 -21.5t-52 -6q-12 0 -21.5 0.5t-18.5 1.5v50q10 -1 19.5 -1.5t19.5 -0.5q28 0 47 14.5t32 56.5l15 50z" />
    <glyph glyph-name="z" unicode="z" horiz-adv-x="352" 
d="M18 50l252 431h-239v50h303v-50l-252 -431h252v-50h-316v50z" />
    <glyph glyph-name="braceleft" unicode="{" horiz-adv-x="241" 
d="M91 594q0 55 25 87.5t82 32.5h51v-50h-50q-23 0 -35.5 -14.5t-12.5 -53.5v-186q1 -71 -16.5 -104t-51.5 -40v-2q34 -7 51.5 -40t16.5 -104v-186q0 -39 12.5 -53.5t35.5 -14.5h50v-50h-51q-57 0 -82 32.5t-25 87.5v175q0 38 -3 62.5t-9.5 39.5t-17.5 21t-28 6v50
q17 0 28 6t17.5 21t9.5 39.5t3 62.5v175z" />
    <glyph glyph-name="bar" unicode="|" horiz-adv-x="222" 
d="M86 726h50v-738h-50v738z" />
    <glyph glyph-name="braceright" unicode="}" horiz-adv-x="241" 
d="M150 -64q0 -55 -25 -87.5t-82 -32.5h-51v50h50q23 0 35.5 14.5t12.5 53.5v186q-1 71 16.5 104t51.5 40v2q-34 7 -51.5 40t-16.5 104v186q0 39 -12.5 53.5t-35.5 14.5h-50v50h51q57 0 82 -32.5t25 -87.5v-175q0 -38 3 -62.5t9.5 -39.5t18 -21t27.5 -6v-50q-16 0 -27.5 -6
t-18 -21t-9.5 -39.5t-3 -62.5v-175z" />
    <glyph glyph-name="asciitilde" unicode="~" horiz-adv-x="600" 
d="M531 280q-32 -44 -58 -65t-67 -21q-22 0 -43.5 6.5t-58.5 26.5q-42 23 -66.5 29t-48.5 6q-33 0 -52.5 -23t-31.5 -49l-36 36q8 16 19.5 31.5t26.5 27.5t34.5 19.5t44.5 7.5q22 0 47.5 -7.5t63.5 -24.5q48 -21 68.5 -28.5t33.5 -7.5q24 0 44.5 17.5t43.5 54.5z" />
    <glyph glyph-name="uni00A0" unicode="&#xa0;" horiz-adv-x="240" 
 />
    <glyph glyph-name="exclamdown" unicode="&#xa1;" horiz-adv-x="240" 
d="M86 54l12 302h44l12 -302v-226h-68v226zM86 542h68v-102h-68v102z" />
    <glyph glyph-name="cent" unicode="&#xa2;" horiz-adv-x="480" 
d="M232 493q-21 -3 -40 -15t-32.5 -37.5t-21.5 -68t-8 -107.5q0 -70 8.5 -113.5t23 -68.5t33 -34t37.5 -11v455zM232 -12q-79 4 -122.5 69t-43.5 209q0 132 43 201t123 76v83h30v-83q71 -5 109 -48.5t43 -121.5h-60q-9 111 -92 120v-455q79 17 92 138h60q-6 -80 -45.5 -130
t-106.5 -58v-83h-30v83z" />
    <glyph glyph-name="sterling" unicode="&#xa3;" horiz-adv-x="480" 
d="M384 504q-8 154 -139 154q-57 0 -95.5 -32t-38.5 -89q0 -26 11.5 -59t28.5 -63l24 -45h151v-44h-134q10 -16 13.5 -35t3.5 -38q0 -55 -30 -104.5t-87 -94.5l2 -2q20 10 39 17t39 7q11 0 29 -6t39 -12q20 -6 39.5 -11t33.5 -5q31 0 60 14t60 36l27 -46q-29 -27 -67 -42.5
t-88 -15.5q-19 0 -38.5 6t-40 13t-40.5 13t-39 6q-32 0 -57.5 -12.5t-38.5 -19.5l-31 49q57 41 91 92.5t34 107.5q0 22 -6 43.5t-15 39.5h-98v44h81l-34 65q-12 23 -19 48t-7 48q0 43 16 76t44 55.5t64.5 34t77.5 11.5q46 0 82.5 -15t61.5 -42t38 -64.5t13 -82.5h-60z" />
    <glyph glyph-name="currency" unicode="&#xa4;" horiz-adv-x="480" 
d="M22 165l47 47q-23 29 -36 63.5t-13 72.5t13 73t36 64l-47 47l35 36l47 -47q28 22 62.5 34.5t73.5 12.5q78 0 137 -48l47 48l35 -36l-47 -47q23 -28 35.5 -63t12.5 -74t-12.5 -73.5t-34.5 -62.5l46 -47l-35 -37l-47 49q-29 -23 -64 -36t-73 -13q-39 0 -74.5 13t-62.5 35
l-46 -48zM74 348q0 -37 14 -68t37 -53.5t53 -35.5t62 -13t62 13t53 35.5t37 53.5t14 68t-14 68t-37 53.5t-53 35.5t-62 13t-62 -13t-53 -35.5t-37 -53.5t-14 -68z" />
    <glyph glyph-name="yen" unicode="&#xa5;" horiz-adv-x="480" 
d="M208 174h-140v44h140v63l-11 24h-129v44h109l-162 347h68l157 -344l157 344h68l-162 -347h109v-44h-129l-11 -24v-63h140v-44h-140v-174h-64v174z" />
    <glyph glyph-name="brokenbar" unicode="&#xa6;" horiz-adv-x="222" 
d="M86 258h50v-270h-50v270zM86 726h50v-270h-50v270z" />
    <glyph glyph-name="section" unicode="&#xa7;" horiz-adv-x="481" 
d="M345 577q0 46 -28.5 72.5t-74.5 26.5t-74 -25t-28 -62q0 -26 17 -47.5t60 -49.5l132 -86q55 -35 76 -68t21 -80q0 -45 -27 -82t-67 -57q27 -22 43.5 -53.5t16.5 -64.5q0 -32 -11 -59.5t-32.5 -48t-52.5 -32t-70 -11.5q-40 0 -72 11.5t-54.5 32t-34.5 48t-12 60.5v20h60
q0 -54 26 -88t85 -34q47 0 75.5 26t28.5 65q0 36 -19 61t-64 54l-120 77q-58 38 -84 71.5t-26 82.5q0 22 8.5 43.5t23 39.5t33 32t38.5 22q-28 20 -45 49t-17 63q0 33 13.5 59t36.5 44t53.5 27.5t65.5 9.5q77 0 118.5 -41.5t41.5 -107.5h-60zM176 447q-45 -24 -63 -50.5
t-18 -55.5t21 -54.5t63 -52.5l132 -86q38 18 56.5 45t18.5 68q0 25 -19 49.5t-48 43.5z" />
    <glyph glyph-name="dieresis" unicode="&#xa8;" horiz-adv-x="186" 
d="M-12 720h60v-102h-60v102zM138 720h60v-102h-60v102z" />
    <glyph glyph-name="copyright" unicode="&#xa9;" horiz-adv-x="800" 
d="M599 281q-17 -70 -66.5 -114t-120.5 -44q-51 0 -92 18t-70.5 49.5t-45 74.5t-15.5 92q0 51 15 93.5t43.5 73.5t69 48.5t92.5 17.5q36 0 68.5 -10t57.5 -29.5t42 -48t22 -65.5h-54q-10 44 -45 73.5t-91 29.5q-41 0 -72 -14t-52 -39t-31.5 -58t-10.5 -72q0 -36 11.5 -69
t33 -58.5t53 -41t71.5 -15.5q54 0 89 31t44 77h54zM31 357q0 77 29 144t79 117t117.5 79t143.5 29q77 0 144 -29t117 -79t79 -117t29 -144q0 -76 -29 -143.5t-79 -117.5t-117 -79t-144 -29q-76 0 -143.5 29t-117.5 79t-79 117.5t-29 143.5zM81 357q0 -66 25 -124
t68.5 -101.5t101.5 -68.5t124 -25t124 25t101.5 68.5t68.5 101.5t25 124t-25 124t-68.5 101.5t-101.5 68.5t-124 25t-124 -25t-101.5 -68.5t-68.5 -101.5t-25 -124z" />
    <glyph glyph-name="ordfeminine" unicode="&#xaa;" horiz-adv-x="277" 
d="M15 602q0 52 27 79t90 27t86 -23.5t23 -61.5v-185q0 -27 20 -27h11v-38q-13 -6 -34 -6q-18 0 -31.5 7.5t-13.5 32.5v14h-2q-11 -32 -35.5 -43t-53.5 -11q-50 0 -73.5 27.5t-23.5 66.5q0 37 18.5 60.5t60.5 34.5l74 19q20 5 26.5 13t6.5 31t-17 34t-43 11
q-35 0 -50.5 -17.5t-15.5 -44.5h-50zM191 551h-2q-3 -8 -16.5 -13t-24.5 -8l-33 -8q-56 -14 -56 -55q0 -23 14.5 -39.5t37.5 -16.5q35 0 57.5 23t22.5 65v52z" />
    <glyph glyph-name="guillemotleft" unicode="&#xab;" horiz-adv-x="370" 
d="M188 314l125 139v-68l-89 -101l89 -101v-68l-125 139v60zM57 314l125 139v-68l-89 -101l89 -101v-68l-125 139v60z" />
    <glyph glyph-name="logicalnot" unicode="&#xac;" horiz-adv-x="600" 
d="M503 325h-456v50h506v-267h-50v217z" />
    <glyph glyph-name="uni00AD" unicode="&#xad;" horiz-adv-x="333" 
d="M275 311v-54h-217v54h217z" />
    <glyph glyph-name="registered" unicode="&#xae;" horiz-adv-x="800" 
d="M403 333h-92v-195h-50v439h169q75 0 109 -31.5t34 -90.5q0 -29 -9 -50t-24 -36t-35 -23.5t-42 -12.5l130 -195h-60zM311 377h108q44 -1 74 16t30 63q0 23 -9 38t-23.5 23.5t-33 12t-38.5 3.5h-108v-156zM31 357q0 77 29 144t79 117t117.5 79t143.5 29q77 0 144 -29
t117 -79t79 -117t29 -144q0 -76 -29 -143.5t-79 -117.5t-117 -79t-144 -29q-76 0 -143.5 29t-117.5 79t-79 117.5t-29 143.5zM81 357q0 -66 25 -124t68.5 -101.5t101.5 -68.5t124 -25t124 25t101.5 68.5t68.5 101.5t25 124t-25 124t-68.5 101.5t-101.5 68.5t-124 25
t-124 -25t-101.5 -68.5t-68.5 -101.5t-25 -124z" />
    <glyph glyph-name="macron" unicode="&#xaf;" horiz-adv-x="186" 
d="M-26 690h238v-44h-238v44z" />
    <glyph glyph-name="degree" unicode="&#xb0;" horiz-adv-x="400" 
d="M101 565q0 -42 28.5 -70.5t70.5 -28.5t70.5 28.5t28.5 70.5t-28.5 70.5t-70.5 28.5t-70.5 -28.5t-28.5 -70.5zM57 565q0 30 11 56t30.5 45.5t45.5 30.5t56 11t56 -11t45.5 -30.5t30.5 -45.5t11 -56t-11 -56t-30.5 -45.5t-45.5 -30.5t-56 -11t-56 11t-45.5 30.5
t-30.5 45.5t-11 56z" />
    <glyph glyph-name="plusminus" unicode="&#xb1;" horiz-adv-x="600" 
d="M275 506h50v-172h228v-50h-228v-172h-50v172h-228v50h228v172zM47 50h506v-50h-506v50z" />
    <glyph glyph-name="twosuperior" unicode="&#xb2;" horiz-adv-x="312" 
d="M24 573q1 63 33.5 99t103.5 36q26 0 48.5 -6.5t39.5 -20.5t27 -36t10 -52q0 -38 -14 -67.5t-59 -63.5l-50 -37q-37 -27 -56 -50.5t-26 -50.5h207v-44h-261q0 56 25 93t71 74l49 39q35 27 47.5 51t12.5 54q0 38 -22 55.5t-53 17.5q-35 0 -56 -23t-23 -68h-54z" />
    <glyph glyph-name="threesuperior" unicode="&#xb3;" horiz-adv-x="312" 
d="M119 525h18q42 0 64.5 19.5t22.5 49.5q0 29 -18.5 49.5t-51.5 20.5q-30 0 -52 -19.5t-23 -54.5h-54q0 54 31.5 86t97.5 32q59 0 91.5 -28t32.5 -77q0 -36 -18 -62.5t-56 -34.5v-2q42 -5 65 -33t23 -68q0 -58 -34 -94t-104 -36q-63 0 -97.5 31t-36.5 91h54q1 -28 21.5 -53
t58.5 -25q15 0 30 5t27 15.5t19.5 26.5t7.5 38q0 37 -25 58t-67 21h-27v44z" />
    <glyph glyph-name="acute" unicode="&#xb4;" horiz-adv-x="186" 
d="M196 738l-98 -141h-48l75 141h71z" />
    <glyph glyph-name="mu" unicode="&#xb5;" horiz-adv-x="444" 
d="M58 531h60v-374q0 -65 22 -92t70 -27q51 0 83.5 37t32.5 99v357h60v-531h-54v74h-2q-23 -45 -59 -65.5t-77 -20.5q-26 0 -46 5.5t-28 18.5h-2v-188h-60v707z" />
    <glyph glyph-name="paragraph" unicode="&#xb6;" horiz-adv-x="481" 
d="M194 334q-33 0 -63 14t-52.5 39t-35.5 58t-13 71q0 48 14 85t39 62t59.5 38t76.5 13h182v-852h-50v808h-107v-808h-50v472z" />
    <glyph glyph-name="periodcentered" unicode="&#xb7;" horiz-adv-x="240" 
d="M65 328q0 23 16 39t39 16t39 -16t16 -39t-16 -39t-39 -16t-39 16t-16 39z" />
    <glyph glyph-name="cedilla" unicode="&#xb8;" horiz-adv-x="186" 
d="M127 0l-43 -56l2 -1q7 3 15.5 4t18.5 1q32 0 54.5 -19.5t22.5 -47.5q0 -21 -10 -37t-25.5 -26.5t-34.5 -16t-36 -5.5q-23 0 -48.5 6t-40.5 14l12 31q12 -6 27.5 -10.5t32.5 -4.5q36 0 52.5 13t16.5 31q0 19 -16.5 27.5t-36.5 8.5q-28 0 -44 -10l-13 17l57 81h37z" />
    <glyph glyph-name="onesuperior" unicode="&#xb9;" horiz-adv-x="312" 
d="M144 600h-108v36q60 1 87.5 20.5t29.5 51.5h45v-428h-54v320z" />
    <glyph glyph-name="ordmasculine" unicode="&#xba;" horiz-adv-x="277" 
d="M9 538q0 170 129 170q130 0 130 -170q0 -171 -130 -171q-129 0 -129 171zM63 538q0 -69 22 -98t53 -29q32 0 54 29t22 98t-22 97.5t-54 28.5q-31 0 -53 -28.5t-22 -97.5z" />
    <glyph glyph-name="guillemotright" unicode="&#xbb;" horiz-adv-x="370" 
d="M57 183l89 101l-89 101v68l125 -139v-60l-125 -139v68zM188 183l89 101l-89 101v68l125 -139v-60l-125 -139v68z" />
    <glyph glyph-name="onequarter" unicode="&#xbc;" horiz-adv-x="721" 
d="M567 110h-186v36l176 282h60v-282h54v-36h-54v-110h-50v110zM567 146v214h-2l-140 -214h142zM541 726h50l-451 -756h-50zM144 600h-108v36q60 1 87.5 20.5t29.5 51.5h45v-428h-54v320z" />
    <glyph glyph-name="onehalf" unicode="&#xbd;" horiz-adv-x="721" 
d="M511 726h50l-451 -756h-50zM144 600h-108v36q60 1 87.5 20.5t29.5 51.5h45v-428h-54v320zM393 293q1 63 33.5 99t103.5 36q26 0 48.5 -6.5t39.5 -20.5t27 -36t10 -52q0 -38 -14 -67.5t-59 -63.5l-50 -37q-37 -27 -56 -50.5t-26 -50.5h207v-44h-261q0 56 25 93t71 74
l49 39q35 27 47.5 51t12.5 54q0 38 -22 55.5t-53 17.5q-35 0 -56 -23t-23 -68h-54z" />
    <glyph glyph-name="threequarters" unicode="&#xbe;" horiz-adv-x="721" 
d="M567 110h-186v36l176 282h60v-282h54v-36h-54v-110h-50v110zM567 146v214h-2l-140 -214h142zM571 726h50l-451 -756h-50zM119 525h18q42 0 64.5 19.5t22.5 49.5q0 29 -18.5 49.5t-51.5 20.5q-30 0 -52 -19.5t-23 -54.5h-54q0 54 31.5 86t97.5 32q59 0 91.5 -28t32.5 -77
q0 -36 -18 -62.5t-56 -34.5v-2q42 -5 65 -33t23 -68q0 -58 -34 -94t-104 -36q-63 0 -97.5 31t-36.5 91h54q1 -28 21.5 -53t58.5 -25q15 0 30 5t27 15.5t19.5 26.5t7.5 38q0 37 -25 58t-67 21h-27v44z" />
    <glyph glyph-name="questiondown" unicode="&#xbf;" 
d="M258 357v-35q0 -28 -3 -48.5t-10.5 -38.5t-20.5 -35.5t-32 -37.5l-42 -45q-29 -31 -40.5 -64.5t-11.5 -62.5q0 -54 30.5 -89t81.5 -35q65 0 96.5 43.5t31.5 124.5h64q0 -47 -11.5 -86.5t-35 -69t-58.5 -46t-83 -16.5q-84 0 -132 48.5t-48 126.5q0 39 13 77t52 80l43 46
q31 32 43.5 61t12.5 74v28h60zM194 542h68v-102h-68v102z" />
    <glyph glyph-name="Agrave" unicode="&#xc0;" horiz-adv-x="500" 
d="M361 262l-110 402h-2l-110 -402h222zM210 714h80l211 -714h-68l-58 208h-250l-58 -208h-68zM218 889l75 -141h-48l-98 141h71z" />
    <glyph glyph-name="Aacute" unicode="&#xc1;" horiz-adv-x="500" 
d="M361 262l-110 402h-2l-110 -402h222zM210 714h80l211 -714h-68l-58 208h-250l-58 -208h-68zM353 889l-98 -141h-48l75 141h71z" />
    <glyph glyph-name="Acircumflex" unicode="&#xc2;" horiz-adv-x="500" 
d="M361 262l-110 402h-2l-110 -402h222zM210 714h80l211 -714h-68l-58 208h-250l-58 -208h-68zM124 748l96 141h60l96 -141h-60l-66 100l-66 -100h-60z" />
    <glyph glyph-name="Atilde" unicode="&#xc3;" horiz-adv-x="500" 
d="M361 262l-110 402h-2l-110 -402h222zM210 714h80l211 -714h-68l-58 208h-250l-58 -208h-68zM384 869q0 -15 -5.5 -32.5t-15.5 -32t-24 -24t-32 -9.5q-14 0 -25 3.5t-24 11.5l-38 21q-16 8 -24 8q-14 0 -23.5 -15.5t-12.5 -32.5h-44q1 16 7 33t16 31.5t23.5 24t29.5 9.5
q17 0 28.5 -4t28.5 -14l26 -15q8 -5 15.5 -8t14.5 -3q8 0 15 5t11.5 12.5t6.5 16t2 14.5h44z" />
    <glyph glyph-name="Adieresis" unicode="&#xc4;" horiz-adv-x="500" 
d="M361 262l-110 402h-2l-110 -402h222zM210 714h80l211 -714h-68l-58 208h-250l-58 -208h-68zM145 871h60v-102h-60v102zM295 871h60v-102h-60v102z" />
    <glyph glyph-name="Aring" unicode="&#xc5;" horiz-adv-x="500" 
d="M361 262l-110 402h-2l-110 -402h222zM210 714h80l211 -714h-68l-58 208h-250l-58 -208h-68zM155 832q0 20 7.5 37t20.5 30t30.5 20.5t36.5 7.5q20 0 37 -7.5t30 -20.5t20.5 -30t7.5 -37q0 -19 -7.5 -36.5t-20.5 -30.5t-30 -20.5t-37 -7.5q-19 0 -36.5 7.5t-30.5 20.5
t-20.5 30.5t-7.5 36.5zM191 832q0 -25 17 -42t42 -17t42 17t17 42t-17 42t-42 17t-42 -17t-17 -42z" />
    <glyph glyph-name="AE" unicode="&#xc6;" horiz-adv-x="704" 
d="M332 208h-191l-81 -208h-68l290 714h395v-54h-281v-260h262v-54h-262v-292h290v-54h-354v208zM332 262v398h-10l-161 -398h171z" />
    <glyph glyph-name="Ccedilla" unicode="&#xc7;" horiz-adv-x="519" 
d="M267 -12q-105 5 -161 93.5t-56 275.5q0 192 59.5 280.5t168.5 88.5q54 0 93 -18t64 -48t36.5 -70t11.5 -84h-64q0 73 -36 119.5t-105 46.5q-38 0 -68.5 -16.5t-51.5 -54t-32.5 -97.5t-11.5 -147t11.5 -147t32.5 -97.5t51.5 -54t68.5 -16.5q68 0 105.5 53.5t42.5 146.5h64
q-6 -114 -53.5 -179t-132.5 -73l-35 -46l2 -1q7 3 15.5 4t18.5 1q32 0 54.5 -19.5t22.5 -47.5q0 -21 -10 -37t-25.5 -26.5t-34.5 -16t-36 -5.5q-23 0 -48.5 6t-40.5 14l12 31q12 -6 27.5 -10.5t32.5 -4.5q36 0 52.5 13t16.5 31q0 19 -16.5 27.5t-36.5 8.5q-28 0 -44 -10
l-13 17z" />
    <glyph glyph-name="Egrave" unicode="&#xc8;" horiz-adv-x="444" 
d="M56 714h354v-54h-290v-260h271v-54h-271v-292h299v-54h-363v714zM208 889l75 -141h-48l-98 141h71z" />
    <glyph glyph-name="Eacute" unicode="&#xc9;" horiz-adv-x="444" 
d="M56 714h354v-54h-290v-260h271v-54h-271v-292h299v-54h-363v714zM343 889l-98 -141h-48l75 141h71z" />
    <glyph glyph-name="Ecircumflex" unicode="&#xca;" horiz-adv-x="444" 
d="M56 714h354v-54h-290v-260h271v-54h-271v-292h299v-54h-363v714zM114 748l96 141h60l96 -141h-60l-66 100l-66 -100h-60z" />
    <glyph glyph-name="Edieresis" unicode="&#xcb;" horiz-adv-x="444" 
d="M56 714h354v-54h-290v-260h271v-54h-271v-292h299v-54h-363v714zM135 871h60v-102h-60v102zM285 871h60v-102h-60v102z" />
    <glyph glyph-name="Igrave" unicode="&#xcc;" horiz-adv-x="184" 
d="M60 714h64v-714h-64v714zM60 889l75 -141h-48l-98 141h71z" />
    <glyph glyph-name="Iacute" unicode="&#xcd;" horiz-adv-x="184" 
d="M60 714h64v-714h-64v714zM195 889l-98 -141h-48l75 141h71z" />
    <glyph glyph-name="Icircumflex" unicode="&#xce;" horiz-adv-x="184" 
d="M60 714h64v-714h-64v714zM-34 748l96 141h60l96 -141h-60l-66 100l-66 -100h-60z" />
    <glyph glyph-name="Idieresis" unicode="&#xcf;" horiz-adv-x="184" 
d="M60 714h64v-714h-64v714zM-13 871h60v-102h-60v102zM137 871h60v-102h-60v102z" />
    <glyph glyph-name="Eth" unicode="&#xd0;" horiz-adv-x="537" 
d="M56 346h-56v54h56v314h172q78 0 128 -23t79.5 -68t40.5 -112t11 -154t-11 -154t-40.5 -112t-79.5 -68t-128 -23h-172v346zM280 400v-54h-160v-292h104q53 0 90.5 14.5t61.5 49.5t35.5 93t11.5 145q0 88 -11.5 146.5t-35.5 93.5t-61.5 49.5t-90.5 14.5h-104v-260h160z" />
    <glyph glyph-name="Ntilde" unicode="&#xd1;" horiz-adv-x="537" 
d="M56 714h86l273 -622h2v622h64v-714h-86l-273 622h-2v-622h-64v714zM403 869q0 -15 -5.5 -32.5t-15.5 -32t-24 -24t-32 -9.5q-14 0 -25 3.5t-24 11.5l-38 21q-16 8 -24 8q-14 0 -23.5 -15.5t-12.5 -32.5h-44q1 16 7 33t16 31.5t23.5 24t29.5 9.5q17 0 28.5 -4t28.5 -14
l26 -15q8 -5 15.5 -8t14.5 -3q8 0 15 5t11.5 12.5t6.5 16t2 14.5h44z" />
    <glyph glyph-name="Ograve" unicode="&#xd2;" horiz-adv-x="556" 
d="M50 357q0 192 59.5 280.5t168.5 88.5q110 0 169 -88.5t59 -280.5t-59 -280.5t-169 -88.5q-109 0 -168.5 88.5t-59.5 280.5zM114 357q0 -87 11.5 -147t32.5 -97.5t51.5 -54t68.5 -16.5t68.5 16.5t51.5 54t32.5 97.5t11.5 147t-11.5 147t-32.5 97.5t-51.5 54t-68.5 16.5
t-68.5 -16.5t-51.5 -54t-32.5 -97.5t-11.5 -147zM246 889l75 -141h-48l-98 141h71z" />
    <glyph glyph-name="Oacute" unicode="&#xd3;" horiz-adv-x="556" 
d="M50 357q0 192 59.5 280.5t168.5 88.5q110 0 169 -88.5t59 -280.5t-59 -280.5t-169 -88.5q-109 0 -168.5 88.5t-59.5 280.5zM114 357q0 -87 11.5 -147t32.5 -97.5t51.5 -54t68.5 -16.5t68.5 16.5t51.5 54t32.5 97.5t11.5 147t-11.5 147t-32.5 97.5t-51.5 54t-68.5 16.5
t-68.5 -16.5t-51.5 -54t-32.5 -97.5t-11.5 -147zM381 889l-98 -141h-48l75 141h71z" />
    <glyph glyph-name="Ocircumflex" unicode="&#xd4;" horiz-adv-x="556" 
d="M50 357q0 192 59.5 280.5t168.5 88.5q110 0 169 -88.5t59 -280.5t-59 -280.5t-169 -88.5q-109 0 -168.5 88.5t-59.5 280.5zM114 357q0 -87 11.5 -147t32.5 -97.5t51.5 -54t68.5 -16.5t68.5 16.5t51.5 54t32.5 97.5t11.5 147t-11.5 147t-32.5 97.5t-51.5 54t-68.5 16.5
t-68.5 -16.5t-51.5 -54t-32.5 -97.5t-11.5 -147zM152 748l96 141h60l96 -141h-60l-66 100l-66 -100h-60z" />
    <glyph glyph-name="Otilde" unicode="&#xd5;" horiz-adv-x="556" 
d="M50 357q0 192 59.5 280.5t168.5 88.5q110 0 169 -88.5t59 -280.5t-59 -280.5t-169 -88.5q-109 0 -168.5 88.5t-59.5 280.5zM114 357q0 -87 11.5 -147t32.5 -97.5t51.5 -54t68.5 -16.5t68.5 16.5t51.5 54t32.5 97.5t11.5 147t-11.5 147t-32.5 97.5t-51.5 54t-68.5 16.5
t-68.5 -16.5t-51.5 -54t-32.5 -97.5t-11.5 -147zM412 869q0 -15 -5.5 -32.5t-15.5 -32t-24 -24t-32 -9.5q-14 0 -25 3.5t-24 11.5l-38 21q-16 8 -24 8q-14 0 -23.5 -15.5t-12.5 -32.5h-44q1 16 7 33t16 31.5t23.5 24t29.5 9.5q17 0 28.5 -4t28.5 -14l26 -15q8 -5 15.5 -8
t14.5 -3q8 0 15 5t11.5 12.5t6.5 16t2 14.5h44z" />
    <glyph glyph-name="Odieresis" unicode="&#xd6;" horiz-adv-x="556" 
d="M50 357q0 192 59.5 280.5t168.5 88.5q110 0 169 -88.5t59 -280.5t-59 -280.5t-169 -88.5q-109 0 -168.5 88.5t-59.5 280.5zM114 357q0 -87 11.5 -147t32.5 -97.5t51.5 -54t68.5 -16.5t68.5 16.5t51.5 54t32.5 97.5t11.5 147t-11.5 147t-32.5 97.5t-51.5 54t-68.5 16.5
t-68.5 -16.5t-51.5 -54t-32.5 -97.5t-11.5 -147zM173 871h60v-102h-60v102zM323 871h60v-102h-60v102z" />
    <glyph glyph-name="multiply" unicode="&#xd7;" horiz-adv-x="600" 
d="M300 218l-190 -190l-36 35l191 190l-191 191l36 35l190 -190l190 190l36 -35l-191 -191l191 -190l-36 -35z" />
    <glyph glyph-name="Oslash" unicode="&#xd8;" horiz-adv-x="556" 
d="M374 634q-37 38 -96 38q-38 0 -68.5 -16.5t-51.5 -54t-32.5 -97.5t-11.5 -147q0 -162 41 -238zM183 80q19 -20 42.5 -29t52.5 -9q38 0 68.5 16.5t51.5 54t32.5 97.5t11.5 147q0 84 -10.5 142.5t-30.5 95.5zM96 -26l33 78q-39 43 -59 118t-20 187q0 192 59.5 280.5
t168.5 88.5q71 0 118 -34l27 64l37 -14l-33 -79q39 -44 59 -119t20 -187q0 -192 -59 -280.5t-169 -88.5q-69 0 -118 34l-27 -64z" />
    <glyph glyph-name="Ugrave" unicode="&#xd9;" horiz-adv-x="500" 
d="M46 714h64v-513q0 -159 140 -159t140 159v513h64v-514q0 -112 -53 -162t-151 -50t-151 50t-53 162v514zM218 889l75 -141h-48l-98 141h71z" />
    <glyph glyph-name="Uacute" unicode="&#xda;" horiz-adv-x="500" 
d="M46 714h64v-513q0 -159 140 -159t140 159v513h64v-514q0 -112 -53 -162t-151 -50t-151 50t-53 162v514zM353 889l-98 -141h-48l75 141h71z" />
    <glyph glyph-name="Ucircumflex" unicode="&#xdb;" horiz-adv-x="500" 
d="M46 714h64v-513q0 -159 140 -159t140 159v513h64v-514q0 -112 -53 -162t-151 -50t-151 50t-53 162v514zM124 748l96 141h60l96 -141h-60l-66 100l-66 -100h-60z" />
    <glyph glyph-name="Udieresis" unicode="&#xdc;" horiz-adv-x="500" 
d="M46 714h64v-513q0 -159 140 -159t140 159v513h64v-514q0 -112 -53 -162t-151 -50t-151 50t-53 162v514zM145 871h60v-102h-60v102zM295 871h60v-102h-60v102z" />
    <glyph glyph-name="Yacute" unicode="&#xdd;" horiz-adv-x="444" 
d="M190 286l-193 428h68l157 -356l157 356h68l-193 -428v-286h-64v286zM325 889l-98 -141h-48l75 141h71z" />
    <glyph glyph-name="Thorn" unicode="&#xde;" horiz-adv-x="480" 
d="M120 224h109q32 0 59.5 7.5t48 25t32.5 46t12 69.5t-12 69.5t-32.5 46t-48 25t-59.5 7.5h-109v-296zM56 714h64v-140h134q50 0 86 -15t59.5 -41.5t34.5 -63.5t11 -82q0 -41 -11 -78t-36.5 -64.5t-67.5 -43.5t-103 -16h-107v-170h-64v714z" />
    <glyph glyph-name="germandbls" unicode="&#xdf;" horiz-adv-x="444" 
d="M52 539q0 91 44.5 137t122.5 46q75 0 118 -43t43 -122q0 -22 -5.5 -45t-17.5 -43.5t-32 -35.5t-49 -21v-2q43 -5 70 -25.5t42 -48.5t20.5 -60t5.5 -60q0 -105 -51 -163.5t-141 -58.5q-11 0 -22 1.5t-19 4.5v50q12 -6 33 -6q28 0 53 10.5t43.5 32t29 54.5t10.5 79
q0 160 -142 160h-22v50h17q52 0 82.5 30.5t30.5 93.5q0 51 -24.5 84.5t-75.5 33.5q-45 0 -74.5 -30.5t-29.5 -108.5v-533h-60v539z" />
    <glyph glyph-name="agrave" unicode="&#xe0;" 
d="M47 373q0 82 39.5 126t124.5 44q83 0 116.5 -39t33.5 -102v-314q0 -44 31 -44h17v-44q-16 -6 -28 -6q-35 0 -56 12t-21 54v18h-2q-18 -53 -55 -71.5t-82 -18.5q-70 0 -102.5 40.5t-32.5 109.5q0 53 25 92t82 55l113 32q16 5 26 9.5t15.5 13.5t7.5 23.5t2 37.5
q0 51 -25.5 71.5t-66.5 20.5q-54 0 -78 -31t-24 -89h-60zM301 300h-2q-5 -14 -25.5 -22t-38.5 -13l-50 -13q-45 -12 -68 -37t-23 -73q0 -47 22.5 -75.5t61.5 -28.5q55 0 89 39t34 111v112zM181 738l75 -141h-48l-98 141h71z" />
    <glyph glyph-name="aacute" unicode="&#xe1;" 
d="M47 373q0 82 39.5 126t124.5 44q83 0 116.5 -39t33.5 -102v-314q0 -44 31 -44h17v-44q-16 -6 -28 -6q-35 0 -56 12t-21 54v18h-2q-18 -53 -55 -71.5t-82 -18.5q-70 0 -102.5 40.5t-32.5 109.5q0 53 25 92t82 55l113 32q16 5 26 9.5t15.5 13.5t7.5 23.5t2 37.5
q0 51 -25.5 71.5t-66.5 20.5q-54 0 -78 -31t-24 -89h-60zM301 300h-2q-5 -14 -25.5 -22t-38.5 -13l-50 -13q-45 -12 -68 -37t-23 -73q0 -47 22.5 -75.5t61.5 -28.5q55 0 89 39t34 111v112zM316 738l-98 -141h-48l75 141h71z" />
    <glyph glyph-name="acircumflex" unicode="&#xe2;" 
d="M47 373q0 82 39.5 126t124.5 44q83 0 116.5 -39t33.5 -102v-314q0 -44 31 -44h17v-44q-16 -6 -28 -6q-35 0 -56 12t-21 54v18h-2q-18 -53 -55 -71.5t-82 -18.5q-70 0 -102.5 40.5t-32.5 109.5q0 53 25 92t82 55l113 32q16 5 26 9.5t15.5 13.5t7.5 23.5t2 37.5
q0 51 -25.5 71.5t-66.5 20.5q-54 0 -78 -31t-24 -89h-60zM301 300h-2q-5 -14 -25.5 -22t-38.5 -13l-50 -13q-45 -12 -68 -37t-23 -73q0 -47 22.5 -75.5t61.5 -28.5q55 0 89 39t34 111v112zM87 597l96 141h60l96 -141h-60l-66 100l-66 -100h-60z" />
    <glyph glyph-name="atilde" unicode="&#xe3;" 
d="M47 373q0 82 39.5 126t124.5 44q83 0 116.5 -39t33.5 -102v-314q0 -44 31 -44h17v-44q-16 -6 -28 -6q-35 0 -56 12t-21 54v18h-2q-18 -53 -55 -71.5t-82 -18.5q-70 0 -102.5 40.5t-32.5 109.5q0 53 25 92t82 55l113 32q16 5 26 9.5t15.5 13.5t7.5 23.5t2 37.5
q0 51 -25.5 71.5t-66.5 20.5q-54 0 -78 -31t-24 -89h-60zM301 300h-2q-5 -14 -25.5 -22t-38.5 -13l-50 -13q-45 -12 -68 -37t-23 -73q0 -47 22.5 -75.5t61.5 -28.5q55 0 89 39t34 111v112zM347 718q0 -15 -5.5 -32.5t-15.5 -32t-24 -24t-32 -9.5q-14 0 -25 3.5t-24 11.5
l-38 21q-16 8 -24 8q-14 0 -23.5 -15.5t-12.5 -32.5h-44q1 16 7 33t16 31.5t23.5 24t29.5 9.5q17 0 28.5 -4t28.5 -14l26 -15q8 -5 15.5 -8t14.5 -3q8 0 15 5t11.5 12.5t6.5 16t2 14.5h44z" />
    <glyph glyph-name="adieresis" unicode="&#xe4;" 
d="M47 373q0 82 39.5 126t124.5 44q83 0 116.5 -39t33.5 -102v-314q0 -44 31 -44h17v-44q-16 -6 -28 -6q-35 0 -56 12t-21 54v18h-2q-18 -53 -55 -71.5t-82 -18.5q-70 0 -102.5 40.5t-32.5 109.5q0 53 25 92t82 55l113 32q16 5 26 9.5t15.5 13.5t7.5 23.5t2 37.5
q0 51 -25.5 71.5t-66.5 20.5q-54 0 -78 -31t-24 -89h-60zM301 300h-2q-5 -14 -25.5 -22t-38.5 -13l-50 -13q-45 -12 -68 -37t-23 -73q0 -47 22.5 -75.5t61.5 -28.5q55 0 89 39t34 111v112zM108 720h60v-102h-60v102zM258 720h60v-102h-60v102z" />
    <glyph glyph-name="aring" unicode="&#xe5;" 
d="M47 373q0 82 39.5 126t124.5 44q83 0 116.5 -39t33.5 -102v-314q0 -44 31 -44h17v-44q-16 -6 -28 -6q-35 0 -56 12t-21 54v18h-2q-18 -53 -55 -71.5t-82 -18.5q-70 0 -102.5 40.5t-32.5 109.5q0 53 25 92t82 55l113 32q16 5 26 9.5t15.5 13.5t7.5 23.5t2 37.5
q0 51 -25.5 71.5t-66.5 20.5q-54 0 -78 -31t-24 -89h-60zM301 300h-2q-5 -14 -25.5 -22t-38.5 -13l-50 -13q-45 -12 -68 -37t-23 -73q0 -47 22.5 -75.5t61.5 -28.5q55 0 89 39t34 111v112zM118 681q0 20 7.5 37t20.5 30t30.5 20.5t36.5 7.5q20 0 37 -7.5t30 -20.5t20.5 -30
t7.5 -37q0 -19 -7.5 -36.5t-20.5 -30.5t-30 -20.5t-37 -7.5q-19 0 -36.5 7.5t-30.5 20.5t-20.5 30.5t-7.5 36.5zM154 681q0 -25 17 -42t42 -17t42 17t17 42t-17 42t-42 17t-42 -17t-17 -42z" />
    <glyph glyph-name="ae" unicode="&#xe6;" horiz-adv-x="648" 
d="M47 373q0 82 39 126t118 44q46 0 80.5 -20.5t45.5 -65.5h2q14 43 49 64.5t75 21.5q89 0 125.5 -68.5t36.5 -211.5h-274v-29q0 -102 29.5 -149t74.5 -47q22 0 41 10.5t33 28.5t22.5 43.5t8.5 55.5h60q-5 -91 -48 -139.5t-115 -48.5q-53 0 -87 30t-50 80h-2
q-16 -58 -54 -84t-92 -26q-70 0 -102.5 40.5t-32.5 109.5q0 34 7.5 58.5t23 42t40.5 30t60 21.5l72 19q29 8 40 23t11 55q0 57 -19 81.5t-63 24.5q-48 0 -71.5 -31t-23.5 -89h-60zM175 247q-46 -13 -63.5 -37.5t-17.5 -67.5q0 -47 22.5 -75.5t61.5 -28.5q18 0 36.5 7.5
t34 24t25.5 42.5t10 63v111h-2q-5 -7 -17.5 -12.5t-27.5 -9.5zM554 313q-1 99 -29.5 139.5t-75.5 40.5q-46 0 -74.5 -40.5t-30.5 -139.5h210z" />
    <glyph glyph-name="ccedilla" unicode="&#xe7;" horiz-adv-x="407" 
d="M202 -12q-40 1 -72 17t-54.5 49.5t-34 86t-11.5 125.5q0 139 47.5 208t135.5 69q75 0 117 -44t47 -126h-60q-5 63 -30.5 91.5t-73.5 28.5q-24 0 -46 -9t-38 -34.5t-25.5 -69.5t-9.5 -115q0 -75 10 -120t25.5 -68.5t36 -31t41.5 -7.5q46 0 74 34t36 104h60
q-6 -75 -41.5 -125t-95.5 -61l-36 -46l2 -1q7 3 15.5 4t18.5 1q32 0 54.5 -19.5t22.5 -47.5q0 -21 -10 -37t-25.5 -26.5t-34.5 -16t-36 -5.5q-23 0 -48.5 6t-40.5 14l12 31q12 -6 27.5 -10.5t32.5 -4.5q36 0 52.5 13t16.5 31q0 19 -16.5 27.5t-36.5 8.5q-28 0 -44 -10
l-13 17z" />
    <glyph glyph-name="egrave" unicode="&#xe8;" 
d="M385 176q-7 -85 -51.5 -136.5t-119.5 -51.5q-42 0 -75 15.5t-56 48.5t-35 86t-12 128q0 139 47.5 208t135.5 69q89 0 130 -62t41 -196v-22h-290v-25q0 -57 9.5 -95.5t25 -62t36 -33t42.5 -9.5q97 0 112 138h60zM326 313q-1 99 -29 139.5t-84 40.5q-55 0 -83 -40.5
t-30 -139.5h226zM186 738l75 -141h-48l-98 141h71z" />
    <glyph glyph-name="eacute" unicode="&#xe9;" 
d="M385 176q-7 -85 -51.5 -136.5t-119.5 -51.5q-42 0 -75 15.5t-56 48.5t-35 86t-12 128q0 139 47.5 208t135.5 69q89 0 130 -62t41 -196v-22h-290v-25q0 -57 9.5 -95.5t25 -62t36 -33t42.5 -9.5q97 0 112 138h60zM326 313q-1 99 -29 139.5t-84 40.5q-55 0 -83 -40.5
t-30 -139.5h226zM321 738l-98 -141h-48l75 141h71z" />
    <glyph glyph-name="ecircumflex" unicode="&#xea;" 
d="M385 176q-7 -85 -51.5 -136.5t-119.5 -51.5q-42 0 -75 15.5t-56 48.5t-35 86t-12 128q0 139 47.5 208t135.5 69q89 0 130 -62t41 -196v-22h-290v-25q0 -57 9.5 -95.5t25 -62t36 -33t42.5 -9.5q97 0 112 138h60zM326 313q-1 99 -29 139.5t-84 40.5q-55 0 -83 -40.5
t-30 -139.5h226zM92 597l96 141h60l96 -141h-60l-66 100l-66 -100h-60z" />
    <glyph glyph-name="edieresis" unicode="&#xeb;" 
d="M385 176q-7 -85 -51.5 -136.5t-119.5 -51.5q-42 0 -75 15.5t-56 48.5t-35 86t-12 128q0 139 47.5 208t135.5 69q89 0 130 -62t41 -196v-22h-290v-25q0 -57 9.5 -95.5t25 -62t36 -33t42.5 -9.5q97 0 112 138h60zM326 313q-1 99 -29 139.5t-84 40.5q-55 0 -83 -40.5
t-30 -139.5h226zM113 720h60v-102h-60v102zM263 720h60v-102h-60v102z" />
    <glyph glyph-name="igrave" unicode="&#xec;" horiz-adv-x="184" 
d="M62 531h60v-531h-60v531zM60 738l75 -141h-48l-98 141h71z" />
    <glyph glyph-name="iacute" unicode="&#xed;" horiz-adv-x="184" 
d="M62 531h60v-531h-60v531zM195 738l-98 -141h-48l75 141h71z" />
    <glyph glyph-name="icircumflex" unicode="&#xee;" horiz-adv-x="184" 
d="M62 531h60v-531h-60v531zM-34 597l96 141h60l96 -141h-60l-66 100l-66 -100h-60z" />
    <glyph glyph-name="idieresis" unicode="&#xef;" horiz-adv-x="184" 
d="M62 531h60v-531h-60v531zM-13 720h60v-102h-60v102zM137 720h60v-102h-60v102z" />
    <glyph glyph-name="eth" unicode="&#xf0;" 
d="M94 260q0 -61 9 -103.5t25 -69t38 -38t47 -11.5t47 11.5t38 38t25 69t9 103.5t-9 103t-25 68.5t-38 38t-47 11.5t-47 -11.5t-38 -38t-25 -68.5t-9 -103zM80 630l74 44q-17 18 -35 34l-38 34l47 32l39 -35q19 -17 37 -37l72 42l36 -30l-75 -45q35 -37 64 -79.5t50 -91.5
t33 -106.5t12 -125.5q0 -140 -47.5 -209t-135.5 -69t-135.5 68.5t-47.5 203.5q0 134 48 202.5t124 68.5q26 0 51 -11t47 -42l2 2q-52 89 -115 159l-69 -41z" />
    <glyph glyph-name="ntilde" unicode="&#xf1;" horiz-adv-x="444" 
d="M58 531h54v-74h2q23 45 59 65.5t77 20.5q61 0 98.5 -33.5t37.5 -108.5v-401h-60v384q0 109 -91 109q-53 0 -85 -37t-32 -99v-357h-60v531zM356 718q0 -15 -5.5 -32.5t-15.5 -32t-24 -24t-32 -9.5q-14 0 -25 3.5t-24 11.5l-38 21q-16 8 -24 8q-14 0 -23.5 -15.5
t-12.5 -32.5h-44q1 16 7 33t16 31.5t23.5 24t29.5 9.5q17 0 28.5 -4t28.5 -14l26 -15q8 -5 15.5 -8t14.5 -3q8 0 15 5t11.5 12.5t6.5 16t2 14.5h44z" />
    <glyph glyph-name="ograve" unicode="&#xf2;" 
d="M30 266q0 139 47.5 208t135.5 69t135.5 -69t47.5 -208q0 -140 -47.5 -209t-135.5 -69t-135.5 69t-47.5 209zM94 266q0 -64 9 -107.5t25 -70.5t38 -38.5t47 -11.5t47 11.5t38 38.5t25 70.5t9 107.5q0 63 -9 106.5t-25 70.5t-38 38.5t-47 11.5t-47 -11.5t-38 -38.5
t-25 -70.5t-9 -106.5zM181 738l75 -141h-48l-98 141h71z" />
    <glyph glyph-name="oacute" unicode="&#xf3;" 
d="M30 266q0 139 47.5 208t135.5 69t135.5 -69t47.5 -208q0 -140 -47.5 -209t-135.5 -69t-135.5 69t-47.5 209zM94 266q0 -64 9 -107.5t25 -70.5t38 -38.5t47 -11.5t47 11.5t38 38.5t25 70.5t9 107.5q0 63 -9 106.5t-25 70.5t-38 38.5t-47 11.5t-47 -11.5t-38 -38.5
t-25 -70.5t-9 -106.5zM316 738l-98 -141h-48l75 141h71z" />
    <glyph glyph-name="ocircumflex" unicode="&#xf4;" 
d="M30 266q0 139 47.5 208t135.5 69t135.5 -69t47.5 -208q0 -140 -47.5 -209t-135.5 -69t-135.5 69t-47.5 209zM94 266q0 -64 9 -107.5t25 -70.5t38 -38.5t47 -11.5t47 11.5t38 38.5t25 70.5t9 107.5q0 63 -9 106.5t-25 70.5t-38 38.5t-47 11.5t-47 -11.5t-38 -38.5
t-25 -70.5t-9 -106.5zM87 597l96 141h60l96 -141h-60l-66 100l-66 -100h-60z" />
    <glyph glyph-name="otilde" unicode="&#xf5;" 
d="M30 266q0 139 47.5 208t135.5 69t135.5 -69t47.5 -208q0 -140 -47.5 -209t-135.5 -69t-135.5 69t-47.5 209zM94 266q0 -64 9 -107.5t25 -70.5t38 -38.5t47 -11.5t47 11.5t38 38.5t25 70.5t9 107.5q0 63 -9 106.5t-25 70.5t-38 38.5t-47 11.5t-47 -11.5t-38 -38.5
t-25 -70.5t-9 -106.5zM347 718q0 -15 -5.5 -32.5t-15.5 -32t-24 -24t-32 -9.5q-14 0 -25 3.5t-24 11.5l-38 21q-16 8 -24 8q-14 0 -23.5 -15.5t-12.5 -32.5h-44q1 16 7 33t16 31.5t23.5 24t29.5 9.5q17 0 28.5 -4t28.5 -14l26 -15q8 -5 15.5 -8t14.5 -3q8 0 15 5t11.5 12.5
t6.5 16t2 14.5h44z" />
    <glyph glyph-name="odieresis" unicode="&#xf6;" 
d="M30 266q0 139 47.5 208t135.5 69t135.5 -69t47.5 -208q0 -140 -47.5 -209t-135.5 -69t-135.5 69t-47.5 209zM94 266q0 -64 9 -107.5t25 -70.5t38 -38.5t47 -11.5t47 11.5t38 38.5t25 70.5t9 107.5q0 63 -9 106.5t-25 70.5t-38 38.5t-47 11.5t-47 -11.5t-38 -38.5
t-25 -70.5t-9 -106.5zM108 720h60v-102h-60v102zM258 720h60v-102h-60v102z" />
    <glyph glyph-name="divide" unicode="&#xf7;" horiz-adv-x="600" 
d="M47 278h506v-50h-506v50zM245 459q0 23 16 39t39 16t39 -16t16 -39t-16 -39t-39 -16t-39 16t-16 39zM245 47q0 23 16 39t39 16t39 -16t16 -39t-16 -39t-39 -16t-39 16t-16 39z" />
    <glyph glyph-name="oslash" unicode="&#xf8;" 
d="M276 469q-14 13 -30 18.5t-33 5.5q-25 0 -47 -11.5t-38 -38.5t-25 -70.5t-9 -106.5q0 -57 7 -97.5t21 -67.5zM150 63q14 -14 30 -19.5t33 -5.5q25 0 47 11.5t38 38.5t25 70.5t9 107.5q0 57 -7 97.5t-21 66.5zM63 -40l32 76q-32 33 -48.5 90.5t-16.5 139.5q0 139 47.5 208
t135.5 69q50 0 85 -22l27 65l38 -16l-32 -75q32 -33 48.5 -90.5t16.5 -138.5q0 -140 -47.5 -209t-135.5 -69q-50 0 -85 23l-28 -66z" />
    <glyph glyph-name="ugrave" unicode="&#xf9;" horiz-adv-x="444" 
d="M58 531h60v-374q0 -65 22 -92t70 -27q51 0 83.5 37t32.5 99v357h60v-531h-54v74h-2q-23 -45 -59 -65.5t-77 -20.5q-61 0 -98.5 33.5t-37.5 108.5v401zM190 738l75 -141h-48l-98 141h71z" />
    <glyph glyph-name="uacute" unicode="&#xfa;" horiz-adv-x="444" 
d="M58 531h60v-374q0 -65 22 -92t70 -27q51 0 83.5 37t32.5 99v357h60v-531h-54v74h-2q-23 -45 -59 -65.5t-77 -20.5q-61 0 -98.5 33.5t-37.5 108.5v401zM325 738l-98 -141h-48l75 141h71z" />
    <glyph glyph-name="ucircumflex" unicode="&#xfb;" horiz-adv-x="444" 
d="M58 531h60v-374q0 -65 22 -92t70 -27q51 0 83.5 37t32.5 99v357h60v-531h-54v74h-2q-23 -45 -59 -65.5t-77 -20.5q-61 0 -98.5 33.5t-37.5 108.5v401zM96 597l96 141h60l96 -141h-60l-66 100l-66 -100h-60z" />
    <glyph glyph-name="udieresis" unicode="&#xfc;" horiz-adv-x="444" 
d="M58 531h60v-374q0 -65 22 -92t70 -27q51 0 83.5 37t32.5 99v357h60v-531h-54v74h-2q-23 -45 -59 -65.5t-77 -20.5q-61 0 -98.5 33.5t-37.5 108.5v401zM117 720h60v-102h-60v102zM267 720h60v-102h-60v102z" />
    <glyph glyph-name="yacute" unicode="&#xfd;" horiz-adv-x="370" 
d="M7 531h64l119 -460h2l107 460h64l-155 -574q-10 -39 -22 -64.5t-28.5 -41t-38.5 -21.5t-52 -6q-12 0 -21.5 0.5t-18.5 1.5v50q10 -1 19.5 -1.5t19.5 -0.5q28 0 47 14.5t32 56.5l15 50zM288 738l-98 -141h-48l75 141h71z" />
    <glyph glyph-name="thorn" unicode="&#xfe;" horiz-adv-x="444" 
d="M52 714h60v-271h2q12 46 46.5 73t77.5 27q88 0 129 -69.5t41 -208.5q0 -138 -41 -207.5t-129 -69.5q-50 0 -82 25t-42 67h-2v-256h-60v890zM112 265q0 -73 9.5 -118t25.5 -69t37 -32t44 -8t43.5 8t37 32t26 69t9.5 118q0 74 -9.5 119t-26 69t-37 32t-43.5 8t-44 -8
t-37 -32t-25.5 -69t-9.5 -119z" />
    <glyph glyph-name="ydieresis" unicode="&#xff;" horiz-adv-x="370" 
d="M7 531h64l119 -460h2l107 460h64l-155 -574q-10 -39 -22 -64.5t-28.5 -41t-38.5 -21.5t-52 -6q-12 0 -21.5 0.5t-18.5 1.5v50q10 -1 19.5 -1.5t19.5 -0.5q28 0 47 14.5t32 56.5l15 50zM80 720h60v-102h-60v102zM230 720h60v-102h-60v102z" />
    <glyph glyph-name="dotlessi" unicode="&#x131;" horiz-adv-x="184" 
d="M62 531h60v-531h-60v531z" />
    <glyph glyph-name="Lslash" unicode="&#x141;" 
d="M56 286l-70 -48v60l70 48v368h64v-324l186 127v-60l-186 -127v-276h296v-54h-360v286z" />
    <glyph glyph-name="lslash" unicode="&#x142;" horiz-adv-x="184" 
d="M62 316l-62 -66v60l62 66v338h60v-274l62 66v-60l-62 -66v-380h-60v316z" />
    <glyph glyph-name="OE" unicode="&#x152;" horiz-adv-x="778" 
d="M410 491q0 53 -8 87.5t-25.5 55.5t-44 29.5t-62.5 8.5q-38 0 -68.5 -16.5t-51.5 -54t-32.5 -97.5t-11.5 -147t11.5 -147t32.5 -97.5t51.5 -54t68.5 -16.5q74 0 107 44.5t33 150.5v254zM410 714h339v-54h-275v-260h256v-54h-256v-292h284v-54h-348v64h-2q-16 -38 -53 -57
t-85 -19q-109 0 -168.5 88.5t-59.5 280.5t59.5 280.5t168.5 88.5q57 0 88.5 -18.5t49.5 -51.5h2v58z" />
    <glyph glyph-name="oe" unicode="&#x153;" horiz-adv-x="704" 
d="M661 176q-5 -91 -48 -139.5t-115 -48.5q-43 0 -79 22.5t-59 87.5h-2q-15 -54 -50.5 -82t-86.5 -28q-88 0 -135.5 69t-47.5 209q0 139 47.5 208t135.5 69q52 0 90 -27t53 -84h2q14 53 48.5 82t89.5 29q89 0 125.5 -68.5t36.5 -211.5h-274v-29q0 -102 29.5 -149t74.5 -47
q22 0 41 10.5t33 28.5t22.5 43.5t8.5 55.5h60zM102 266q0 -64 9 -107.5t25 -70.5t36.5 -38.5t44.5 -11.5t44.5 11.5t36.5 38.5t25 70.5t9 107.5q0 63 -9 106.5t-25 70.5t-36.5 38.5t-44.5 11.5t-44.5 -11.5t-36.5 -38.5t-25 -70.5t-9 -106.5zM602 313q-1 99 -29.5 139.5
t-75.5 40.5q-46 0 -74.5 -40.5t-30.5 -139.5h210z" />
    <glyph glyph-name="Scaron" unicode="&#x160;" horiz-adv-x="480" 
d="M369 531q0 66 -31 103.5t-97 37.5q-65 0 -100 -37.5t-35 -90.5t25.5 -82t64 -46.5t83.5 -30.5t83.5 -34t64 -56t25.5 -98q0 -103 -59 -156t-157 -53q-101 0 -154.5 53t-53.5 159v21h64v-27q0 -69 35.5 -110.5t106.5 -41.5q68 0 111 35t43 110q0 53 -25.5 81.5t-64 46
t-83.5 30t-83.5 33.5t-64 57.5t-25.5 101.5q0 42 13.5 77t38.5 59.5t62 38.5t83 14q100 0 147 -49.5t47 -145.5h-64zM173 889l67 -101l67 101h60l-98 -141h-60l-96 141h60z" />
    <glyph glyph-name="scaron" unicode="&#x161;" horiz-adv-x="389" 
d="M142 264q-57 22 -79.5 54t-22.5 72q0 41 12 70t33 47.5t50 27t63 8.5q75 0 110.5 -37.5t35.5 -110.5v-15h-60v15q0 52 -22.5 75t-64.5 23q-53 0 -75 -25t-22 -65q0 -28 13.5 -50t58.5 -39l87 -33q54 -20 76.5 -55.5t22.5 -79.5q0 -68 -40 -113t-124 -45q-82 0 -122.5 37
t-40.5 128v17h60v-14q0 -118 102 -118q48 0 76.5 25t28.5 70q0 35 -16 58.5t-56 39.5zM128 738l67 -101l67 101h60l-98 -141h-60l-96 141h60z" />
    <glyph glyph-name="Ydieresis" unicode="&#x178;" horiz-adv-x="444" 
d="M190 286l-193 428h68l157 -356l157 356h68l-193 -428v-286h-64v286zM117 871h60v-102h-60v102zM267 871h60v-102h-60v102z" />
    <glyph glyph-name="Zcaron" unicode="&#x17d;" horiz-adv-x="462" 
d="M22 60l348 600h-328v54h393v-60l-342 -600h347v-54h-418v60zM164 889l67 -101l67 101h60l-98 -141h-60l-96 141h60z" />
    <glyph glyph-name="zcaron" unicode="&#x17e;" horiz-adv-x="352" 
d="M18 50l252 431h-239v50h303v-50l-252 -431h252v-50h-316v50zM109 738l67 -101l67 101h60l-98 -141h-60l-96 141h60z" />
    <glyph glyph-name="florin" unicode="&#x192;" horiz-adv-x="480" 
d="M120 441h105l26 130q9 47 27 75.5t40.5 43.5t46.5 19.5t46 4.5q11 0 22.5 -1t24.5 -3l-11 -50q-7 2 -13.5 3t-13.5 1q-22 0 -40 -4t-33 -19t-27 -44.5t-21 -80.5l-14 -75h112l-8 -44h-112l-73 -382q-10 -53 -23 -89.5t-32 -59t-45.5 -32.5t-63.5 -10q-16 0 -29.5 1.5
t-23.5 5.5l11 50q7 -3 14.5 -5t18.5 -2q24 0 41.5 5t30.5 21.5t23.5 49t20.5 86.5l70 361h-105z" />
    <glyph glyph-name="circumflex" unicode="&#x2c6;" horiz-adv-x="186" 
d="M-33 597l96 141h60l96 -141h-60l-66 100l-66 -100h-60z" />
    <glyph glyph-name="caron" unicode="&#x2c7;" horiz-adv-x="186" 
d="M26 738l67 -101l67 101h60l-98 -141h-60l-96 141h60z" />
    <glyph glyph-name="uni02C9" unicode="&#x2c9;" horiz-adv-x="186" 
d="M-26 690h238v-44h-238v44z" />
    <glyph glyph-name="breve" unicode="&#x2d8;" horiz-adv-x="186" 
d="M16 726q2 -19 9 -33t17 -25q20 -20 51 -20q30 0 51 20t26 58h44q-4 -57 -37 -89.5t-84 -32.5t-84 32.5t-37 89.5h44z" />
    <glyph glyph-name="dotaccent" unicode="&#x2d9;" horiz-adv-x="186" 
d="M63 720h60v-102h-60v102z" />
    <glyph glyph-name="ring" unicode="&#x2da;" horiz-adv-x="186" 
d="M-2 681q0 20 7.5 37t20.5 30t30.5 20.5t36.5 7.5q20 0 37 -7.5t30 -20.5t20.5 -30t7.5 -37q0 -19 -7.5 -36.5t-20.5 -30.5t-30 -20.5t-37 -7.5q-19 0 -36.5 7.5t-30.5 20.5t-20.5 30.5t-7.5 36.5zM34 681q0 -25 17 -42t42 -17t42 17t17 42t-17 42t-42 17t-42 -17t-17 -42
z" />
    <glyph glyph-name="ogonek" unicode="&#x2db;" horiz-adv-x="186" 
d="M163 6q-54 -37 -75 -67t-21 -60q0 -47 55 -47q27 0 59 19l13 -29q-17 -11 -41.5 -18.5t-50.5 -7.5q-50 0 -69.5 22t-19.5 50q0 38 25 76t78 62h47z" />
    <glyph glyph-name="tilde" unicode="&#x2dc;" horiz-adv-x="186" 
d="M227 718q0 -15 -5.5 -32.5t-15.5 -32t-24 -24t-32 -9.5q-14 0 -25 3.5t-24 11.5l-38 21q-16 8 -24 8q-14 0 -23.5 -15.5t-12.5 -32.5h-44q1 16 7 33t16 31.5t23.5 24t29.5 9.5q17 0 28.5 -4t28.5 -14l26 -15q8 -5 15.5 -8t14.5 -3q8 0 15 5t11.5 12.5t6.5 16t2 14.5h44z
" />
    <glyph glyph-name="hungarumlaut" unicode="&#x2dd;" horiz-adv-x="186" 
d="M120 738l-98 -141h-47l74 141h71zM271 738l-98 -141h-47l74 141h71z" />
    <glyph glyph-name="uni03A9" unicode="&#x3a9;" horiz-adv-x="622" 
d="M178 52q-24 25 -46 58.5t-38.5 74t-26.5 88t-10 100.5q0 77 20 138t54.5 104.5t81.5 66.5t101 23q56 0 102 -25.5t78.5 -69.5t50.5 -104t18 -129q0 -55 -10.5 -104.5t-27.5 -91t-38.5 -74t-44.5 -55.5v-3h133v-49h-202v36q26 21 50 54t43 75t30 92.5t11 107.5
q0 49 -12 100.5t-36 93.5t-60.5 69t-85.5 27q-46 0 -83 -22.5t-63 -61.5t-40 -92t-14 -114q0 -54 11.5 -104.5t30.5 -93.5t43.5 -77t49.5 -54v-36h-202v49h132v3z" />
    <glyph glyph-name="uni03BC" unicode="&#x3bc;" horiz-adv-x="444" 
d="M58 531h60v-374q0 -65 22 -92t70 -27q51 0 83.5 37t32.5 99v357h60v-531h-54v74h-2q-23 -45 -59 -65.5t-77 -20.5q-26 0 -46 5.5t-28 18.5h-2v-188h-60v707z" />
    <glyph glyph-name="pi" unicode="&#x3c0;" horiz-adv-x="491" 
d="M394 465v-324q0 -61 4 -92t9 -49h-53q-6 11 -10.5 43t-4.5 92v330h-165q-2 -51 -7.5 -117t-14.5 -131.5t-20 -123.5t-24 -93h-54q13 40 24.5 97.5t20 121.5t14 128.5t6.5 117.5q-43 0 -64 -3.5t-34 -8.5l-10 38q16 11 44 17.5t77 6.5h339l-6 -50h-71z" />
    <glyph glyph-name="uni2010" unicode="&#x2010;" horiz-adv-x="333" 
d="M275 311v-54h-217v54h217z" />
    <glyph glyph-name="endash" unicode="&#x2013;" horiz-adv-x="500" 
d="M500 311v-54h-500v54h500z" />
    <glyph glyph-name="emdash" unicode="&#x2014;" horiz-adv-x="1000" 
d="M1000 311v-54h-1000v54h1000z" />
    <glyph glyph-name="quoteleft" unicode="&#x2018;" horiz-adv-x="240" 
d="M83 576q0 22 3 43t11 39.5t22.5 32.5t37.5 23v-40q-20 -12 -27 -34.5t-8 -63.5h29v-102h-68v102z" />
    <glyph glyph-name="quoteright" unicode="&#x2019;" horiz-adv-x="240" 
d="M89 714h68v-102q0 -22 -3 -43t-11 -39.5t-22.5 -32.5t-37.5 -23v40q20 12 27 34.5t8 63.5h-29v102z" />
    <glyph glyph-name="quotesinglbase" unicode="&#x201a;" horiz-adv-x="240" 
d="M89 102h68v-102q0 -22 -3 -43t-11 -39.5t-22.5 -32.5t-37.5 -23v40q20 12 27 34.5t8 63.5h-29v102z" />
    <glyph glyph-name="quotedblleft" unicode="&#x201c;" horiz-adv-x="352" 
d="M205 576q0 22 3 43t11 39.5t22.5 32.5t37.5 23v-40q-20 -12 -27 -34.5t-8 -63.5h29v-102h-68v102zM73 576q0 22 3 43t11 39.5t22.5 32.5t37.5 23v-40q-20 -12 -27 -34.5t-8 -63.5h29v-102h-68v102z" />
    <glyph glyph-name="quotedblright" unicode="&#x201d;" horiz-adv-x="352" 
d="M79 714h68v-102q0 -22 -3 -43t-11 -39.5t-22.5 -32.5t-37.5 -23v40q20 12 27 34.5t8 63.5h-29v102zM211 714h68v-102q0 -22 -3 -43t-11 -39.5t-22.5 -32.5t-37.5 -23v40q20 12 27 34.5t8 63.5h-29v102z" />
    <glyph glyph-name="quotedblbase" unicode="&#x201e;" horiz-adv-x="352" 
d="M79 102h68v-102q0 -22 -3 -43t-11 -39.5t-22.5 -32.5t-37.5 -23v40q20 12 27 34.5t8 63.5h-29v102zM211 102h68v-102q0 -22 -3 -43t-11 -39.5t-22.5 -32.5t-37.5 -23v40q20 12 27 34.5t8 63.5h-29v102z" />
    <glyph glyph-name="dagger" unicode="&#x2020;" horiz-adv-x="480" 
d="M210 714h60v-224h176v-50h-176v-585h-60v585h-176v50h176v224z" />
    <glyph glyph-name="daggerdbl" unicode="&#x2021;" horiz-adv-x="480" 
d="M270 714v-206h176v-50h-176v-347h176v-50h-176v-206h-60v206h-176v50h176v347h-176v50h176v206h60z" />
    <glyph glyph-name="bullet" unicode="&#x2022;" horiz-adv-x="500" 
d="M72 357q0 37 14 69.5t38 56.5t56.5 38t69.5 14t69.5 -14t56.5 -38t38 -56.5t14 -69.5t-14 -69.5t-38 -56.5t-56.5 -38t-69.5 -14t-69.5 14t-56.5 38t-38 56.5t-14 69.5z" />
    <glyph glyph-name="ellipsis" unicode="&#x2026;" horiz-adv-x="1000" 
d="M133 102h68v-102h-68v102zM466 102h68v-102h-68v102zM799 102h68v-102h-68v102z" />
    <glyph glyph-name="perthousand" unicode="&#x2030;" horiz-adv-x="1000" 
d="M107 524q0 -80 20.5 -110t51.5 -30q32 0 52 30t20 110t-20 110t-52 30q-31 0 -51.5 -30t-20.5 -110zM480 708h50l-307 -720h-50zM448 172q0 -80 20.5 -110t51.5 -30q32 0 52 30t20 110t-20 110t-52 30q-31 0 -51.5 -30t-20.5 -110zM53 524q0 54 8.5 89.5t24.5 56.5
t39.5 29.5t53.5 8.5t53.5 -8.5t39.5 -29.5t24.5 -56.5t8.5 -89.5t-8.5 -89.5t-24.5 -56.5t-39.5 -29.5t-53.5 -8.5t-53.5 8.5t-39.5 29.5t-24.5 56.5t-8.5 89.5zM394 172q0 54 8.5 89.5t24.5 56.5t39.5 29.5t53.5 8.5t53.5 -8.5t39.5 -29.5t24.5 -56.5t8.5 -89.5t-8.5 -89.5
t-24.5 -56.5t-39.5 -29.5t-53.5 -8.5t-53.5 8.5t-39.5 29.5t-24.5 56.5t-8.5 89.5zM749 172q0 -80 20.5 -110t51.5 -30q32 0 52 30t20 110t-20 110t-52 30q-31 0 -51.5 -30t-20.5 -110zM695 172q0 54 8.5 89.5t24.5 56.5t39.5 29.5t53.5 8.5t53.5 -8.5t39.5 -29.5
t24.5 -56.5t8.5 -89.5t-8.5 -89.5t-24.5 -56.5t-39.5 -29.5t-53.5 -8.5t-53.5 8.5t-39.5 29.5t-24.5 56.5t-8.5 89.5z" />
    <glyph glyph-name="guilsinglleft" unicode="&#x2039;" horiz-adv-x="241" 
d="M58 314l125 139v-68l-89 -101l89 -101v-68l-125 139v60z" />
    <glyph glyph-name="guilsinglright" unicode="&#x203a;" horiz-adv-x="241" 
d="M58 183l89 101l-89 101v68l125 -139v-60l-125 -139v68z" />
    <glyph glyph-name="fraction" unicode="&#x2044;" horiz-adv-x="167" 
d="M284 726h50l-451 -756h-50z" />
    <glyph glyph-name="Euro" unicode="&#x20ac;" horiz-adv-x="480" 
d="M453 610q-33 20 -63.5 33.5t-70.5 13.5q-45 0 -75 -18t-48.5 -47.5t-27.5 -66.5t-13 -75h257l-18 -54h-243q-1 -8 -1 -16v-16v-32h229l-19 -54h-209q3 -41 10.5 -83.5t25.5 -77.5t49.5 -57t82.5 -22q45 0 75 18t62 46v-73q-34 -23 -65 -32t-73 -9q-68 0 -111.5 23.5
t-69.5 63.5t-38 92.5t-16 110.5h-69l18 54h49v32v16q0 8 1 16h-68l18 54h54q6 54 21 101t43 82.5t70.5 56t102.5 20.5q43 0 80 -12.5t74 -32.5z" />
    <glyph glyph-name="afii61289" unicode="&#x2113;" horiz-adv-x="421" 
d="M399 105q-26 -53 -65.5 -82.5t-91.5 -29.5q-39 0 -65.5 15t-43.5 41.5t-25 62t-9 75.5v14l-25 -23l-26 -23l-20 34l37 34q18 17 34 34v277q0 67 11.5 111.5t30 71t42 37.5t46.5 11q52 0 78 -43t26 -110q0 -95 -49.5 -186t-131.5 -180v-34q0 -48 8 -81t21.5 -53.5
t31.5 -29.5t39 -9t39 8t33 21t27 29t20 31zM152 308q30 36 55.5 72.5t45 74.5t30.5 77t11 79q0 51 -15.5 79.5t-50.5 28.5q-13 0 -27 -9.5t-24.5 -31t-17.5 -56t-7 -84.5v-230z" />
    <glyph glyph-name="trademark" unicode="&#x2122;" horiz-adv-x="990" 
d="M177 670h-135v44h320v-44h-135v-368h-50v368zM782 714h86v-412h-50v368h-2l-149 -368h-30l-149 368h-2v-368h-50v412h86l132 -334z" />
    <glyph glyph-name="Omega" unicode="&#x2126;" horiz-adv-x="622" 
d="M178 52q-24 25 -46 58.5t-38.5 74t-26.5 88t-10 100.5q0 77 20 138t54.5 104.5t81.5 66.5t101 23q56 0 102 -25.5t78.5 -69.5t50.5 -104t18 -129q0 -55 -10.5 -104.5t-27.5 -91t-38.5 -74t-44.5 -55.5v-3h133v-49h-202v36q26 21 50 54t43 75t30 92.5t11 107.5
q0 49 -12 100.5t-36 93.5t-60.5 69t-85.5 27q-46 0 -83 -22.5t-63 -61.5t-40 -92t-14 -114q0 -54 11.5 -104.5t30.5 -93.5t43.5 -77t49.5 -54v-36h-202v49h132v3z" />
    <glyph glyph-name="estimated" unicode="&#x212e;" horiz-adv-x="868" 
d="M186 338q-5 0 -5 -4v-196q0 -12 8 -23q48 -49 110.5 -77.5t134.5 -28.5q78 0 144 32.5t114 86.5h57q-54 -63 -136.5 -101t-179.5 -38q-82 0 -155 28t-127 77t-85.5 114t-31.5 140t31.5 140.5t85.5 114t127 77t155 28.5q83 0 156 -28.5t127 -77t85.5 -114t31.5 -140.5v-10
h-647zM686 561q0 14 -9 23q-48 47 -109.5 74.5t-133.5 27.5t-134 -28.5t-110 -76.5q-9 -10 -9 -25v-193q0 -2 1.5 -4t3.5 -2h496q2 0 3 2t1 4v198z" />
    <glyph glyph-name="partialdiff" unicode="&#x2202;" horiz-adv-x="473" 
d="M69 725q23 20 57 36.5t85 16.5q41 0 80 -21t69.5 -66.5t49 -116t18.5 -169.5q0 -92 -14.5 -168t-42.5 -130t-70 -84t-97 -30q-41 0 -71.5 18t-51 48.5t-31 71.5t-10.5 87q0 58 15.5 105t42 80t60.5 51t70 18q30 0 54 -9.5t42 -23t30 -28.5t18 -27h1q1 8 1 20v22
q0 69 -13.5 124.5t-36.5 95.5t-53.5 61.5t-64.5 21.5q-41 0 -69 -15t-47 -32zM209 41q33 0 60 22t47 59.5t33 88t17 106.5q-6 18 -17.5 37t-28 34.5t-38 25.5t-47.5 10q-28 0 -53.5 -16t-45 -44t-30.5 -65.5t-11 -79.5q0 -81 30.5 -129.5t82.5 -48.5h1z" />
    <glyph glyph-name="Delta" unicode="&#x2206;" horiz-adv-x="560" 
d="M30 41l221 671h62l218 -670v-42h-501v41zM472 47l-133 407q-6 20 -15 44l-16 49l-16 47q-7 23 -11 41h-4q-3 -16 -9 -37l-14 -42l-16 -46l-13 -43l-140 -420h387z" />
    <glyph glyph-name="product" unicode="&#x220f;" horiz-adv-x="605" 
d="M485 641v-737h-54v737h-258v-737h-54v737h-95v53h556v-53h-95z" />
    <glyph glyph-name="summation" unicode="&#x2211;" horiz-adv-x="485" 
d="M21 -96v40l243 354l-231 355v41h415v-50h-339v-3l218 -335l-236 -343v-4h373v-55h-443z" />
    <glyph glyph-name="minus" unicode="&#x2212;" horiz-adv-x="600" 
d="M47 278h506v-50h-506v50z" />
    <glyph glyph-name="uni2215" unicode="&#x2215;" horiz-adv-x="167" 
d="M284 726h50l-451 -756h-50z" />
    <glyph glyph-name="uni2219" unicode="&#x2219;" horiz-adv-x="240" 
d="M65 328q0 23 16 39t39 16t39 -16t16 -39t-16 -39t-39 -16t-39 16t-16 39z" />
    <glyph glyph-name="radical" unicode="&#x221a;" horiz-adv-x="505" 
d="M305 -152h-51l-145 470l-66 -24l-12 37l115 43l117 -374l9 -38q4 -21 6 -35h1q2 14 5 33l6 38l167 826h43z" />
    <glyph glyph-name="infinity" unicode="&#x221e;" horiz-adv-x="706" 
d="M660 289q0 -32 -11.5 -58.5t-30.5 -45t-44 -28.5t-52 -10q-44 0 -81.5 27.5t-86.5 81.5l-37 -40q-19 -19 -40 -34.5t-44.5 -25t-51.5 -9.5t-52.5 11t-43 29.5t-29 44t-10.5 54.5q0 30 10.5 56t29.5 45t44.5 30t56.5 11q26 0 49 -9.5t44 -25t40 -35.5t37 -41
q18 21 36.5 40.5t39 35.5t44.5 25.5t52 9.5q60 0 95.5 -38.5t35.5 -99.5v-1zM187 185q23 0 42.5 10t37.5 25t34 32l31 33l-31 38q-17 19 -35.5 34t-39.5 24.5t-46 9.5q-44 0 -68.5 -32t-23.5 -74q0 -42 26.5 -71t71.5 -29h1zM524 391q-24 0 -45 -11.5t-39.5 -27.5t-34 -34
t-27.5 -30q47 -49 78.5 -76t69.5 -27q22 0 39.5 9t29.5 23t18 32t6 37q0 51 -27 78t-67 27h-1z" />
    <glyph glyph-name="integral" unicode="&#x222b;" horiz-adv-x="316" 
d="M289 792q-6 4 -15 6.5t-17 2.5q-11 0 -24 -5.5t-22 -18.5q-17 -23 -24 -64t-7 -116q0 -58 1.5 -122t4 -130t4 -131t1.5 -124q0 -84 -12 -130t-29 -72q-14 -22 -36 -33t-47 -11q-16 0 -31 5t-23 10l12 42l15 -6q11 -4 24 -4q27 0 43 24q13 19 22 58.5t9 116.5
q0 60 -1.5 126t-4 132.5t-4 131.5t-1.5 122q0 81 10 129t36 77q16 18 37 27.5t44 9.5q13 0 26 -4t20 -9z" />
    <glyph glyph-name="approxequal" unicode="&#x2248;" horiz-adv-x="501" 
d="M459 392q-17 -36 -44.5 -62t-69.5 -26q-27 0 -49.5 10.5t-54.5 28.5q-22 13 -42 22t-43 9q-31 0 -51 -20t-37 -49l-27 20q20 42 51.5 64.5t69.5 22.5q33 0 58 -14l44 -24q23 -13 41.5 -22.5t42.5 -9.5q28 0 47 17.5t38 52.5zM459 241q-17 -36 -44.5 -61.5t-69.5 -25.5
q-27 0 -49.5 10t-54.5 28q-22 13 -42 22.5t-42 9.5q-32 0 -52.5 -21t-36.5 -49l-27 20q20 42 51.5 65t69.5 23q33 0 58 -14l44 -24q23 -13 41.5 -22.5t43.5 -9.5q27 0 46 17.5t38 51.5z" />
    <glyph glyph-name="notequal" unicode="&#x2260;" horiz-adv-x="501" 
d="M312 389h141v-40h-157l-61 -134h218v-39h-234l-48 -106l-31 14l41 92h-135v39h152l60 134h-212v40h228l47 104l32 -14z" />
    <glyph glyph-name="lessequal" unicode="&#x2264;" horiz-adv-x="501" 
d="M51 316v40l400 210v-49l-356 -179v-2l356 -181v-49zM47 25v41h407v-41h-407z" />
    <glyph glyph-name="greaterequal" unicode="&#x2265;" horiz-adv-x="501" 
d="M452 356v-40l-400 -210v49l356 180v2l-356 180v49zM47 25v41h406v-41h-406z" />
    <glyph glyph-name="lozenge" unicode="&#x25ca;" horiz-adv-x="506" 
d="M275 -38h-46l-179 385l180 385h47l178 -385zM270 628q-5 12 -9.5 26.5t-7.5 25.5h-2l-7 -24q-4 -14 -10 -28l-132 -280l134 -284q6 -15 9.5 -28.5t5.5 -22.5h4q2 9 6 24t9 26l133 282z" />
    <glyph glyph-name="fi" unicode="&#xfb01;" 
d="M304 531h60v-531h-60v531zM304 714h60v-102h-60v102zM80 481h-73v50h73v63q0 27 4 50.5t16 41t35 27t61 9.5q14 0 22 -0.5t16 -2.5v-50q-13 3 -29 3q-33 0 -49 -16t-16 -62v-63h94v-50h-94v-481h-60v481z" />
    <glyph glyph-name="fl" unicode="&#xfb02;" 
d="M304 714h60v-714h-60v714zM80 481h-73v50h73v63q0 27 4 50.5t16 41t35 27t61 9.5q14 0 22 -0.5t16 -2.5v-50q-13 3 -29 3q-33 0 -49 -16t-16 -62v-63h94v-50h-94v-481h-60v481z" />
    <glyph glyph-name="a.superior" horiz-adv-x="277" 
d="M15 602q0 52 27 79t90 27t86 -23.5t23 -61.5v-185q0 -27 20 -27h11v-38q-13 -6 -34 -6q-18 0 -31.5 7.5t-13.5 32.5v14h-2q-11 -32 -35.5 -43t-53.5 -11q-50 0 -73.5 27.5t-23.5 66.5q0 37 18.5 60.5t60.5 34.5l74 19q20 5 26.5 13t6.5 31t-17 34t-43 11
q-35 0 -50.5 -17.5t-15.5 -44.5h-50zM191 551h-2q-3 -8 -16.5 -13t-24.5 -8l-33 -8q-56 -14 -56 -55q0 -23 14.5 -39.5t37.5 -16.5q35 0 57.5 23t22.5 65v52z" />
    <glyph glyph-name="o.superior" horiz-adv-x="277" 
d="M9 538q0 170 129 170q130 0 130 -170q0 -171 -130 -171q-129 0 -129 171zM63 538q0 -69 22 -98t53 -29q32 0 54 29t22 98t-22 97.5t-54 28.5q-31 0 -53 -28.5t-22 -97.5z" />
    <glyph glyph-name="one.superior" horiz-adv-x="312" 
d="M144 600h-108v36q60 1 87.5 20.5t29.5 51.5h45v-428h-54v320z" />
    <glyph glyph-name="three.superior" horiz-adv-x="312" 
d="M119 525h18q42 0 64.5 19.5t22.5 49.5q0 29 -18.5 49.5t-51.5 20.5q-30 0 -52 -19.5t-23 -54.5h-54q0 54 31.5 86t97.5 32q59 0 91.5 -28t32.5 -77q0 -36 -18 -62.5t-56 -34.5v-2q42 -5 65 -33t23 -68q0 -58 -34 -94t-104 -36q-63 0 -97.5 31t-36.5 91h54q1 -28 21.5 -53
t58.5 -25q15 0 30 5t27 15.5t19.5 26.5t7.5 38q0 37 -25 58t-67 21h-27v44z" />
    <glyph glyph-name="two.superior" horiz-adv-x="312" 
d="M24 573q1 63 33.5 99t103.5 36q26 0 48.5 -6.5t39.5 -20.5t27 -36t10 -52q0 -38 -14 -67.5t-59 -63.5l-50 -37q-37 -27 -56 -50.5t-26 -50.5h207v-44h-261q0 56 25 93t71 74l49 39q35 27 47.5 51t12.5 54q0 38 -22 55.5t-53 17.5q-35 0 -56 -23t-23 -68h-54z" />
    </font>
</defs>
</svg>
